<?xml version="1.0" standalone="no"?>
<!DOCTYPE svg PUBLIC "-//W3C//DTD SVG 20010904//EN"
 "http://www.w3.org/TR/2001/REC-SVG-20010904/DTD/svg10.dtd">
<svg version="1.0" xmlns="http://www.w3.org/2000/svg"
 width="2400.000000pt" height="3600.000000pt" viewBox="0 0 2400.000000 3600.000000"
 preserveAspectRatio="xMidYMid meet">
<metadata>
Created by potrace 1.16, written by Peter Selinger 2001-2019
</metadata>
<g transform="translate(0.000000,3600.000000) scale(0.100000,-0.100000)"
fill="#000000" stroke="none">
<path d="M16445 35990 c14 -6 15 -9 5 -10 -13 0 -13 -2 1 -13 9 -7 19 -29 23
-49 4 -21 17 -48 29 -60 22 -23 34 -98 16 -98 -5 0 -9 16 -9 36 0 46 -23 68
-71 69 -22 0 -39 4 -39 9 0 5 -6 3 -14 -3 -7 -6 -20 -9 -29 -5 -8 3 -18 1 -22
-5 -4 -7 3 -11 17 -11 19 -1 20 -2 7 -10 -25 -14 -54 -5 -51 16 3 15 1 17 -9
7 -7 -7 -31 -13 -53 -13 -37 0 -38 -1 -23 -18 12 -13 14 -26 8 -55 -9 -39 -6
-43 19 -27 10 6 11 10 3 10 -7 0 -13 9 -13 20 0 11 5 20 11 20 6 0 13 -9 16
-20 3 -11 10 -20 15 -20 5 0 6 5 3 10 -3 6 4 14 17 19 23 10 23 10 -4 10 -31
1 -45 18 -29 34 9 9 14 9 19 1 4 -6 26 -14 48 -17 35 -6 42 -4 46 11 3 12 16
18 38 20 33 3 33 2 15 -18 -17 -18 -17 -20 -1 -20 13 0 16 -5 11 -20 -7 -22 5
-26 23 -8 9 9 12 9 12 0 0 -6 -7 -15 -16 -20 -11 -6 -13 -11 -5 -16 6 -4 11
-2 11 3 0 6 5 11 11 11 6 0 9 -7 5 -15 -3 -9 0 -15 9 -15 8 0 15 5 15 11 0 8
5 7 16 -2 14 -11 18 -11 29 4 8 11 16 14 19 8 4 -5 2 -13 -4 -16 -8 -5 -8 -11
0 -20 8 -10 7 -14 -2 -18 -7 -2 -10 -7 -6 -11 3 -4 15 -3 26 3 12 6 30 11 42
11 30 0 35 25 10 60 -18 25 -19 30 -6 30 9 0 16 -6 16 -14 0 -7 9 -25 21 -40
17 -21 18 -26 5 -26 -9 0 -16 -7 -16 -15 0 -8 7 -15 15 -15 9 0 15 -9 15 -21
0 -18 -2 -19 -15 -9 -9 7 -18 10 -22 7 -3 -4 -12 -2 -19 4 -18 15 -45 4 -38
-16 5 -11 -1 -15 -26 -15 -27 0 -32 -3 -27 -20 3 -11 1 -20 -4 -20 -22 0 -6
-19 19 -22 19 -2 26 -8 24 -20 -2 -12 2 -16 13 -12 8 3 15 2 15 -4 0 -5 -8
-13 -17 -16 -23 -9 -6 -23 40 -31 33 -7 37 -5 37 14 0 18 4 20 25 15 15 -4 25
-2 25 5 0 6 -9 11 -20 11 -11 0 -20 5 -20 11 0 22 -25 2 -30 -24 -4 -20 -9
-24 -19 -17 -24 14 2 59 39 66 51 11 33 21 -32 18 -35 -1 -67 0 -71 3 -12 7
25 32 39 26 7 -2 15 0 19 6 3 6 24 11 45 11 39 0 39 0 42 42 2 31 8 44 21 46
9 2 17 -1 17 -7 0 -6 -7 -11 -16 -11 -12 0 -14 -7 -9 -32 9 -39 5 -34 33 -42
20 -7 22 -4 22 26 l1 33 14 -25 c7 -14 9 -26 4 -28 -5 -2 -9 -13 -9 -24 0 -15
-5 -18 -19 -13 -59 19 -85 9 -36 -13 14 -6 25 -18 25 -27 0 -8 7 -15 15 -15 8
0 15 6 15 13 0 6 12 17 26 24 22 10 24 10 19 -7 -3 -10 -1 -21 4 -25 13 -8 -8
-55 -24 -55 -7 0 -20 9 -30 20 -10 11 -23 20 -29 20 -6 0 -5 -4 2 -9 8 -4 14
-12 14 -17 0 -5 4 -8 8 -7 20 6 19 -37 -1 -71 -12 -20 -20 -38 -18 -39 34 -19
51 -22 87 -17 23 4 44 5 46 2 9 -8 -7 -32 -17 -25 -7 4 -8 -2 -3 -18 4 -13 8
-30 8 -36 2 -22 17 -14 24 12 3 14 11 25 18 24 24 -3 37 1 31 11 -3 6 -17 10
-31 10 -23 0 -24 2 -12 23 11 20 13 20 16 4 2 -11 9 -16 18 -13 7 3 16 1 19
-3 3 -5 14 -7 25 -4 11 3 20 0 20 -6 0 -6 -9 -11 -20 -11 -14 0 -20 -7 -20
-21 0 -18 -4 -20 -25 -15 -14 4 -25 2 -25 -3 0 -11 48 -24 61 -16 5 4 7 10 4
15 -2 4 7 10 20 13 14 2 28 1 30 -3 3 -5 13 -6 24 -3 11 3 27 -4 40 -18 18
-20 21 -20 21 -5 0 10 6 16 13 13 6 -2 12 -16 12 -30 0 -14 6 -32 13 -38 13
-14 17 -39 6 -39 -4 0 -13 8 -20 18 -11 14 -15 15 -23 3 -5 -7 -6 -22 -3 -34
3 -14 1 -18 -6 -13 -8 5 -12 0 -12 -13 0 -22 16 -29 22 -9 4 12 53 -14 76 -41
11 -13 12 -13 12 1 0 9 -7 19 -16 22 -8 3 -12 10 -9 16 4 7 13 6 27 -1 11 -6
31 -9 44 -6 13 2 24 0 24 -4 0 -5 -8 -9 -18 -9 -24 0 -42 -19 -35 -36 8 -21
33 -17 33 6 0 11 5 20 10 20 6 0 10 -4 10 -9 0 -5 3 -17 6 -26 4 -9 3 -15 -2
-13 -5 2 -20 -5 -34 -15 l-25 -17 23 -7 c21 -5 22 -7 6 -24 -19 -21 -36 -17
-27 6 3 9 -1 15 -11 15 -9 0 -16 5 -16 10 0 14 -28 12 -33 -2 -2 -7 -8 -9 -13
-5 -5 4 -2 12 5 17 9 5 11 14 6 26 -5 11 -9 23 -9 27 -1 12 -58 35 -73 30 -20
-7 -12 50 9 65 10 7 16 18 12 23 -3 5 0 17 7 25 10 13 10 17 -2 25 -8 5 -20 9
-26 9 -7 0 -13 5 -13 10 0 11 -39 13 -64 4 -17 -7 -22 -39 -7 -48 13 -9 11
-76 -3 -76 -6 0 -17 -10 -24 -21 -13 -20 -12 -21 12 -15 22 5 26 3 26 -14 0
-12 5 -18 10 -15 6 4 8 11 5 16 -11 17 15 9 35 -11 l20 -20 -25 -28 c-14 -15
-25 -31 -25 -37 0 -5 7 -2 14 8 7 9 21 17 30 17 9 0 16 5 16 10 0 6 5 10 10
10 6 0 10 -6 10 -14 0 -8 7 -17 16 -20 25 -10 7 -23 -25 -18 -26 4 -32 0 -41
-23 -16 -42 -12 -79 10 -93 17 -10 20 -10 20 3 0 8 -7 15 -15 15 -8 0 -15 9
-15 20 0 11 5 20 10 20 6 0 10 -4 10 -10 0 -5 5 -10 11 -10 6 0 8 7 5 16 -4
10 -1 14 6 11 7 -2 12 -14 11 -26 -2 -13 3 -21 12 -21 22 0 19 47 -4 60 -14 7
-22 7 -26 0 -4 -6 -11 -8 -16 -4 -20 12 5 25 43 23 29 -3 42 1 49 14 6 9 14
17 19 17 17 0 11 -26 -10 -45 -11 -10 -20 -24 -20 -32 0 -10 6 -8 22 6 28 27
40 18 22 -18 -11 -21 -20 -28 -34 -24 -15 4 -19 2 -14 -10 4 -12 14 -15 37
-10 28 6 29 5 16 -9 -8 -9 -17 -12 -20 -6 -3 5 -9 2 -13 -7 -9 -24 -8 -28 9
-21 8 3 15 1 15 -4 0 -6 -7 -10 -15 -10 -8 0 -15 -7 -15 -16 0 -9 7 -14 18
-13 9 2 26 -2 38 -8 12 -7 26 -8 34 -3 8 5 18 6 22 4 4 -3 16 0 25 5 10 6 14
11 8 12 -36 6 -72 5 -81 -3 -8 -5 -11 -1 -10 14 1 19 6 22 29 20 15 -2 27 1
27 7 0 6 -12 12 -27 12 -19 1 -22 3 -10 6 18 5 17 6 -3 28 -17 18 -20 27 -11
43 6 11 7 23 3 27 -4 4 0 6 8 3 8 -3 17 -13 19 -24 5 -30 21 -44 48 -44 22 0
24 2 13 15 -10 12 -16 13 -26 4 -9 -7 -14 -8 -14 -1 0 19 12 42 22 42 5 0 6
-4 3 -10 -3 -6 4 -10 18 -10 33 0 54 -25 37 -45 -17 -21 -3 -36 28 -29 l27 6
-25 -21 c-22 -18 -23 -20 -7 -26 24 -10 48 1 54 24 3 11 16 22 30 26 35 8 42
-2 9 -15 -15 -5 -29 -18 -33 -27 -4 -10 -11 -21 -17 -25 -5 -3 -11 -19 -14
-35 l-3 -28 25 25 c21 19 29 21 38 12 10 -10 8 -14 -10 -18 -14 -4 -22 -14
-22 -28 0 -17 -2 -18 -10 -6 -7 12 -12 12 -22 2 -18 -18 -30 -15 -23 7 6 21 2
25 -37 35 -17 4 -28 2 -28 -4 0 -5 7 -10 15 -10 8 0 15 -5 15 -10 0 -6 -7 -13
-15 -16 -22 -9 -18 -24 6 -24 11 0 18 4 14 10 -3 5 21 -3 54 -18 43 -19 61
-33 62 -47 1 -16 2 -16 8 5 5 17 3 26 -6 28 -7 2 -13 11 -13 21 0 14 7 16 35
13 34 -4 50 -22 20 -22 -11 0 -15 -10 -14 -32 1 -24 3 -27 6 -10 6 29 27 28
47 -3 9 -14 14 -25 11 -25 -3 0 -1 -9 6 -21 10 -20 9 -21 -23 -14 -25 5 -29 4
-18 -4 13 -10 13 -12 0 -21 -8 -5 -19 -10 -25 -10 -16 -1 -60 -38 -53 -45 6
-7 51 18 76 42 16 15 36 17 27 3 -9 -14 7 -12 28 4 19 15 23 42 6 48 -7 2 -9
13 -4 27 5 16 10 20 15 11 5 -9 9 -9 14 -1 13 20 26 12 26 -16 0 -26 1 -26 15
-7 14 18 14 17 15 -13 0 -40 -4 -41 -36 -5 l-24 27 2 -35 c3 -30 7 -35 30 -38
15 -2 37 2 50 9 22 12 22 12 -2 -14 -14 -15 -33 -27 -42 -27 -12 0 -18 -8 -18
-24 0 -13 -7 -27 -16 -30 -12 -4 -15 -2 -11 9 4 8 2 17 -4 21 -17 10 -20 -1
-10 -30 15 -39 43 -32 66 16 24 50 34 55 63 28 11 -11 26 -20 32 -20 5 0 10
-4 10 -10 0 -13 -26 -13 -51 0 -14 8 -25 7 -40 -3 -17 -12 -17 -15 -4 -20 8
-4 15 -1 15 5 0 7 5 6 15 -2 8 -7 15 -20 15 -30 0 -13 6 -17 20 -13 22 6 26
-7 8 -25 -9 -9 -9 -12 0 -12 7 0 12 -7 12 -16 0 -13 -3 -14 -14 -5 -10 9 -16
9 -21 1 -5 -8 -11 -8 -19 0 -10 8 -13 4 -13 -17 0 -16 -3 -37 -7 -48 -7 -18
-6 -18 4 -2 6 9 17 17 25 17 9 0 12 6 9 15 -4 8 -1 15 5 15 6 0 13 -11 17 -25
3 -14 9 -25 13 -25 13 1 41 28 41 40 0 10 -3 10 -15 0 -13 -11 -15 -7 -15 24
0 38 18 48 39 22 13 -15 51 -28 51 -17 0 12 -23 31 -37 31 -16 0 -57 39 -49
47 9 9 38 -6 31 -17 -4 -6 7 -13 25 -16 17 -4 33 -11 36 -15 10 -16 24 -9 24
11 0 11 7 20 15 20 8 0 15 -7 15 -15 0 -8 -4 -15 -10 -15 -5 0 -10 -7 -10 -15
0 -8 -4 -15 -9 -15 -5 0 -11 -9 -14 -20 -4 -17 -11 -19 -31 -14 -20 5 -26 2
-26 -11 0 -9 -4 -14 -9 -11 -13 8 -38 -35 -38 -67 0 -14 3 -24 8 -21 5 3 9 2
9 -3 0 -4 12 -14 27 -21 24 -11 31 -10 54 7 20 15 29 17 38 8 8 -8 11 -6 11 9
0 11 3 15 8 8 4 -6 15 -13 25 -17 21 -8 35 -39 20 -44 -6 -2 -9 -12 -6 -22 3
-13 -2 -20 -17 -24 -26 -7 -24 -43 2 -41 10 1 14 -4 12 -11 -6 -15 -71 -18
-80 -4 -3 5 4 9 15 9 12 0 21 7 21 15 0 8 -7 15 -15 15 -8 0 -15 -4 -15 -9 0
-5 -11 -11 -25 -13 -17 -4 -25 -1 -25 8 0 8 -4 14 -10 14 -19 0 -10 -28 15
-44 27 -18 35 -42 11 -33 -10 4 -13 1 -10 -7 9 -24 57 -27 76 -6 9 11 27 20
41 20 29 0 41 23 27 50 -14 26 -12 77 3 83 9 3 9 9 -1 26 -11 19 -10 21 8 18
11 -2 26 -9 33 -17 10 -10 9 -12 -5 -7 -12 4 -18 1 -18 -7 0 -8 17 -18 38 -24
20 -5 29 -10 20 -11 -24 -1 -22 -13 6 -33 22 -16 25 -16 30 -1 5 11 10 13 17
6 8 -8 7 -17 -1 -33 -9 -18 -9 -25 5 -40 9 -10 25 -20 35 -23 16 -4 18 -2 11
11 -4 10 -6 23 -4 30 3 7 -3 19 -13 27 -11 7 -17 15 -14 17 3 2 20 13 38 26
33 23 72 23 72 -1 0 -8 -3 -8 -12 1 -17 17 -28 15 -21 -4 4 -12 2 -15 -8 -12
-8 3 -20 -2 -28 -9 -12 -12 -11 -18 6 -41 17 -23 28 -27 61 -24 36 2 40 0 35
-18 -3 -11 -11 -20 -18 -20 -7 0 -15 -7 -19 -15 -3 -8 -13 -15 -23 -15 -9 0
-27 -11 -39 -26 -13 -15 -25 -21 -29 -15 -8 13 23 47 50 55 11 3 3 4 -17 1
-21 -2 -40 1 -43 6 -4 5 -15 9 -26 9 -12 0 -19 7 -19 18 0 12 -9 18 -27 20
-34 3 -51 18 -36 33 13 13 36 3 28 -12 -4 -5 1 -9 9 -9 22 0 20 29 -1 37 -10
4 -21 10 -24 15 -12 19 -38 -4 -37 -34 1 -16 -5 -34 -12 -38 -7 -4 -10 -15 -7
-25 4 -9 12 -13 19 -9 8 5 9 2 5 -9 -5 -14 -2 -16 18 -11 19 5 25 2 25 -10 0
-22 17 -20 30 4 6 11 18 20 26 20 9 0 12 -5 8 -11 -3 -6 0 -16 7 -21 10 -7 8
-8 -7 -3 -15 4 -31 -3 -54 -25 -32 -30 -31 -34 2 -31 9 1 22 -7 30 -17 16 -22
57 -46 66 -38 5 6 -10 19 -51 47 -5 4 -6 12 -3 18 8 12 27 15 24 4 -4 -11 42
-56 49 -49 4 3 -2 15 -12 26 -17 19 -17 20 -1 14 12 -5 19 -1 23 15 3 11 9 21
13 21 5 0 16 3 25 6 11 4 7 -4 -10 -22 -20 -21 -25 -34 -20 -53 4 -14 8 -47
11 -73 3 -43 1 -48 -16 -48 -11 0 -20 -4 -20 -9 0 -5 -3 -16 -6 -25 -3 -9 -1
-16 5 -16 6 0 11 9 11 20 0 11 7 20 15 20 13 0 15 -7 9 -36 -6 -32 -4 -36 12
-32 20 4 21 11 9 66 -8 36 9 46 18 10 5 -18 8 -19 21 -8 9 7 16 19 16 26 0 17
16 18 26 3 3 -6 0 -15 -7 -20 -10 -6 -10 -9 -2 -9 14 0 36 37 29 48 -3 4 -1
14 5 22 7 12 9 10 9 -7 0 -14 6 -23 15 -23 8 0 15 -7 15 -15 0 -17 17 -20 22
-5 2 8 14 7 34 -2 19 -8 29 -18 26 -27 -3 -10 0 -12 13 -7 11 4 25 0 37 -10
10 -10 21 -14 25 -11 3 4 1 7 -5 7 -7 0 -12 5 -12 11 0 6 7 9 15 5 9 -3 15 0
15 9 0 8 -4 15 -9 15 -16 0 -18 56 -2 70 11 11 16 11 19 2 2 -7 11 -12 20 -12
14 0 15 -2 2 -10 -9 -5 -19 -5 -27 2 -19 15 -17 -17 2 -36 17 -16 20 -56 5
-56 -5 0 -7 -7 -4 -15 7 -18 -36 -21 -54 -3 -17 17 -62 19 -62 3 0 -8 12 -15
27 -17 14 -2 29 -10 31 -18 3 -8 1 -12 -3 -8 -4 4 -13 1 -20 -8 -6 -9 -25 -18
-42 -20 -17 -2 -37 -5 -43 -6 -7 -2 -15 3 -17 11 -4 9 0 11 16 6 21 -6 30 8
11 20 -13 8 -13 25 0 25 6 0 16 -12 22 -27 10 -24 12 -25 16 -9 2 11 -3 25
-12 32 -14 10 -15 13 -1 24 24 20 18 38 -11 32 -19 -3 -22 -7 -12 -13 9 -6 10
-11 2 -16 -19 -15 -44 -57 -44 -78 0 -27 18 -53 28 -40 4 6 21 10 39 10 28 0
32 -3 37 -37 8 -51 27 -49 24 3 -2 45 10 59 53 59 16 0 29 -7 33 -16 5 -12 2
-15 -12 -12 -10 3 -23 -1 -30 -8 -18 -19 -27 -74 -13 -74 19 0 12 -39 -8 -50
-16 -8 -20 -6 -24 10 -5 20 -5 20 -3 0 0 -12 6 -21 11 -21 13 0 34 -39 35 -61
0 -10 4 -18 8 -18 5 0 14 -18 21 -41 7 -23 15 -37 19 -33 4 5 12 13 17 17 6 5
3 7 -7 3 -19 -6 -25 9 -8 19 6 4 10 16 8 28 -2 15 2 21 12 20 22 -3 67 57 50
67 -13 8 -50 -21 -50 -40 0 -5 -7 -10 -15 -10 -8 0 -15 -4 -15 -10 0 -5 -7
-10 -16 -10 -12 0 -15 7 -12 25 3 14 1 25 -3 25 -5 0 -9 10 -9 21 0 16 5 20
20 16 11 -3 20 -1 20 4 0 5 -4 9 -10 9 -16 0 -24 71 -9 81 19 11 22 4 8 -19
-10 -16 -10 -23 3 -36 12 -12 18 -13 21 -3 2 6 8 9 12 5 4 -4 2 -14 -5 -23
-10 -12 -9 -16 5 -21 10 -4 25 -2 35 4 10 6 22 7 31 1 8 -5 21 -6 30 -3 10 2
19 -2 23 -12 6 -15 8 -14 25 5 25 29 31 26 25 -11 -6 -32 -6 -32 10 -13 16 19
16 20 31 1 8 -11 21 -16 30 -13 18 7 21 31 3 25 -7 -3 -18 1 -25 8 -20 19 -15
24 12 14 20 -8 25 -6 25 6 0 8 5 12 10 9 15 -9 0 -58 -24 -77 -19 -16 -19 -18
-3 -18 14 0 17 -5 12 -22 -10 -32 -17 -37 -42 -28 -15 6 -20 15 -16 29 3 12 9
21 14 21 5 0 9 7 9 15 0 28 -35 12 -41 -19 -2 -11 -9 -21 -16 -23 -7 -3 -9 3
-6 17 4 17 1 20 -18 17 -13 -2 -26 -12 -27 -22 -3 -11 1 -16 9 -13 8 3 22 -6
33 -20 18 -23 24 -24 83 -19 62 6 63 6 63 -18 0 -14 -5 -25 -11 -25 -6 0 -8 7
-5 16 5 13 2 15 -16 10 -13 -3 -26 -6 -29 -6 -4 0 -6 -20 -5 -45 0 -24 -3 -44
-9 -44 -5 0 -10 16 -10 35 0 32 -5 38 -45 61 -25 14 -37 18 -27 10 9 -8 17
-19 17 -26 0 -6 12 -11 28 -11 27 -1 27 -1 -7 -15 -41 -19 -44 -19 -38 0 8 19
-10 29 -20 11 -4 -8 -21 -16 -38 -19 -22 -4 -20 -5 10 -4 29 2 40 -2 40 -13 0
-22 28 -41 38 -27 6 8 7 7 4 -3 -2 -9 -18 -16 -37 -18 -26 -3 -31 0 -27 11 3
9 0 18 -8 20 -21 9 -26 -5 -10 -23 9 -10 18 -39 21 -66 4 -27 9 -52 13 -56 3
-4 27 2 53 14 31 13 50 29 58 49 7 15 19 34 27 40 12 11 13 8 8 -14 -5 -19 -2
-32 11 -44 17 -17 16 -18 -25 -21 -37 -3 -41 -6 -36 -23 4 -13 0 -28 -11 -40
-16 -18 -16 -19 5 -19 14 0 25 7 28 20 3 13 14 20 29 20 13 0 23 5 21 11 -1 6
4 14 11 16 7 3 12 -4 12 -16 0 -14 -8 -23 -25 -27 -35 -9 -21 -24 21 -24 38 0
74 -15 74 -30 0 -5 -6 -7 -14 -4 -20 8 -9 -30 15 -52 10 -9 19 -30 19 -46 0
-24 -6 -32 -34 -43 -19 -8 -37 -19 -41 -25 -10 -17 -25 -11 -35 13 -8 20 -9
20 -9 -9 -1 -29 1 -31 27 -26 15 3 31 11 35 18 4 8 22 14 39 14 26 0 29 -2 18
-15 -10 -12 -10 -15 0 -15 10 0 9 -4 -1 -16 -19 -23 -22 -57 -6 -69 8 -5 18
-23 24 -40 7 -23 17 -31 39 -33 16 -2 32 -9 36 -15 5 -9 10 -9 19 0 9 9 9 16
-2 29 -11 13 -11 18 -1 21 19 7 14 23 -8 23 -15 0 -20 7 -20 26 0 14 4 23 10
19 6 -3 10 -13 10 -21 0 -8 4 -14 9 -14 15 0 10 71 -5 77 -22 8 -17 43 6 43
12 0 20 -7 20 -18 0 -9 9 -23 20 -30 26 -16 26 -35 0 -27 -18 6 -20 2 -18 -34
1 -41 11 -53 22 -28 3 6 3 2 0 -10 -4 -19 -1 -23 18 -23 13 0 37 -1 53 -3 17
-2 38 -5 49 -5 13 -2 16 -7 11 -19 -5 -15 -4 -16 6 -5 17 16 29 15 29 -4 0 -8
-5 -12 -11 -8 -6 4 -9 -1 -7 -13 3 -20 -17 -53 -33 -53 -5 0 -12 14 -17 32 -4
17 -18 38 -31 47 -23 14 -23 14 -17 -6 6 -19 3 -20 -34 -18 -22 1 -47 -3 -55
-9 -12 -8 -4 -10 33 -8 47 4 49 3 55 -26 3 -16 13 -32 22 -35 13 -6 13 -3 -1
19 -23 35 -11 41 22 11 23 -22 25 -28 15 -41 -8 -9 -22 -16 -32 -16 -23 0 -24
-4 -2 -29 15 -18 40 -20 29 -2 -3 4 4 12 15 19 16 10 19 9 19 -3 0 -19 20 -19
48 1 21 14 22 14 22 -12 0 -23 -2 -25 -15 -14 -18 15 -30 7 -22 -14 4 -9 25
-19 49 -23 42 -6 43 -7 14 -14 -19 -5 -35 -4 -43 3 -10 8 -13 6 -13 -6 0 -9 5
-16 10 -16 6 0 10 -16 10 -35 0 -24 -5 -35 -15 -35 -8 0 -15 9 -15 20 0 26
-17 26 -25 -1 -8 -24 9 -41 32 -32 8 3 13 -3 14 -18 l1 -24 8 25 c5 17 8 19 9
8 1 -19 31 -26 31 -8 0 6 -4 10 -8 10 -4 0 -8 15 -7 33 0 26 4 33 25 36 23 3
24 4 5 12 -19 7 -19 8 2 8 22 1 44 21 23 21 -6 0 -8 5 -5 10 10 16 25 12 25
-6 0 -13 7 -15 28 -11 34 7 66 -8 39 -19 -9 -3 -28 -3 -42 0 -22 6 -25 3 -25
-18 0 -14 -4 -28 -10 -31 -5 -3 -10 1 -10 9 0 22 -17 20 -30 -4 -6 -11 -9 -21
-8 -21 6 -3 65 -10 106 -13 23 -2 41 -7 40 -12 -2 -5 -13 -7 -25 -6 -43 6 -32
-17 12 -23 43 -7 52 -16 46 -49 -3 -18 20 -33 49 -31 17 1 33 -2 36 -7 3 -4
14 -13 25 -18 16 -9 21 -7 29 15 5 14 14 25 20 25 13 0 13 -13 -1 -27 -16 -16
-2 -33 27 -33 13 0 24 -3 24 -8 0 -4 -20 -6 -45 -4 -25 2 -45 8 -45 13 0 5 -9
9 -20 9 -11 0 -20 -4 -20 -10 0 -5 -4 -10 -9 -10 -5 0 -8 7 -7 16 1 11 -8 18
-24 19 -24 2 -32 -3 -71 -37 -18 -17 -19 -17 -19 2 0 11 6 20 14 20 13 0 26
20 26 41 0 5 -6 9 -14 9 -7 0 -16 8 -19 19 -4 18 -56 36 -69 23 -12 -12 4 -62
19 -62 9 0 13 -6 9 -15 -3 -8 -1 -15 3 -15 5 0 11 -6 14 -14 8 -19 -5 -66 -18
-65 -5 0 -11 -9 -13 -20 -3 -16 2 -19 25 -16 15 2 36 4 46 4 18 1 21 29 5 42
-16 11 17 59 40 59 27 0 29 -20 2 -27 -26 -7 -25 -20 2 -43 25 -20 45 -16 28
6 -7 7 -10 19 -7 26 4 8 6 7 6 -4 1 -21 21 -25 21 -4 0 20 32 45 37 28 3 -6 8
-10 12 -7 4 2 8 -12 9 -31 1 -30 -1 -35 -16 -29 -28 12 -45 11 -49 -2 -3 -7 2
-13 11 -13 9 0 16 -4 16 -10 0 -12 -13 -13 -24 -2 -8 7 -13 8 -42 11 -10 1
-14 7 -10 16 3 8 1 15 -4 15 -13 0 -13 -23 1 -37 14 -14 3 -34 -15 -27 -10 4
-12 -2 -8 -22 4 -24 6 -25 17 -10 7 9 30 20 51 23 22 3 44 10 50 14 6 5 13 6
17 3 3 -3 13 8 22 25 11 23 13 36 5 50 -7 14 -7 22 1 26 14 9 16 7 24 -42 5
-34 4 -44 -9 -49 -9 -3 -16 -12 -16 -19 0 -7 -7 -18 -15 -25 -13 -10 -15 -9
-16 11 l-1 24 -7 -25 c-4 -14 -13 -25 -21 -25 -25 0 -24 -51 0 -73 22 -21 20
-42 -4 -42 -8 0 -16 9 -19 21 -3 12 -10 18 -16 14 -21 -12 -11 -25 39 -53 53
-29 60 -39 33 -49 -11 -4 -22 1 -31 15 -13 21 -52 31 -52 15 2 -40 85 -68 110
-38 11 13 11 21 2 36 -17 27 -15 30 16 23 38 -9 45 -19 31 -42 -10 -17 -10
-23 0 -36 8 -9 20 -16 28 -16 12 0 14 9 8 48 -4 26 -11 52 -16 58 -5 6 -7 19
-3 28 3 9 1 16 -5 16 -6 0 -11 9 -11 19 0 11 -4 21 -9 23 -14 5 -18 63 -4 63
6 0 15 3 19 8 11 10 24 9 24 -3 0 -5 -7 -10 -16 -10 -22 0 -12 -64 16 -102 11
-15 20 -37 20 -49 0 -16 5 -20 20 -16 11 3 20 1 20 -4 0 -5 7 -9 15 -9 13 0
21 -31 16 -62 0 -5 6 -8 15 -8 19 0 45 -25 42 -41 -2 -6 3 -14 10 -16 8 -3 12
6 12 29 1 40 25 77 41 61 7 -7 5 -15 -7 -28 -12 -12 -14 -19 -6 -24 7 -4 11
-19 10 -34 -2 -27 -4 -27 -48 -22 -33 5 -41 4 -30 -4 8 -6 30 -11 48 -11 20 0
32 -5 32 -14 0 -7 9 -16 21 -19 12 -3 18 -10 15 -16 -4 -6 5 -13 21 -17 26 -7
26 -7 5 -15 -12 -5 -22 -13 -22 -19 0 -5 -9 -10 -20 -10 -24 0 -25 -6 -6 -26
20 -19 26 -18 26 6 0 13 7 20 19 20 23 0 31 19 31 70 0 49 26 74 32 30 3 -16
1 -30 -4 -30 -4 0 -8 -5 -8 -11 0 -6 10 -9 23 -7 27 4 35 39 12 58 -17 14 -20
40 -5 40 6 0 10 -8 10 -18 0 -38 59 -78 75 -52 4 6 -5 10 -19 10 -14 0 -26 5
-26 10 0 15 37 12 54 -5 8 -8 20 -15 26 -15 6 0 9 -4 5 -10 -3 -5 -13 -6 -22
-3 -13 5 -15 1 -11 -21 6 -29 5 -30 -34 -40 -17 -4 -28 -2 -28 4 0 5 9 10 20
10 11 0 20 7 20 15 0 23 -45 18 -90 -10 -42 -26 -51 -45 -23 -45 23 0 12 -9
-18 -13 -32 -5 -33 -41 -1 -45 17 -3 22 2 22 17 0 12 7 21 15 21 9 0 12 -6 9
-15 -5 -11 3 -17 25 -21 55 -11 48 -27 -8 -19 -37 5 -56 3 -67 -6 -13 -11 -18
-10 -25 4 -6 9 -16 17 -24 17 -8 0 -17 11 -21 25 -3 14 -10 25 -14 25 -16 0
-22 -21 -10 -35 14 -17 -3 -29 -31 -20 -20 7 -20 7 -2 21 17 13 17 15 -5 32
-15 11 -21 24 -17 34 8 19 32 31 47 22 5 -3 18 3 28 14 17 18 17 21 4 26 -27
10 -56 7 -52 -6 3 -7 -7 -19 -21 -26 -21 -11 -26 -10 -33 3 -13 23 -31 19 -18
-4 5 -11 10 -29 10 -40 0 -10 5 -21 11 -23 5 -2 12 -19 15 -38 4 -26 2 -31 -6
-20 -9 13 -13 12 -29 -9 -11 -15 -24 -22 -34 -18 -11 4 -14 2 -10 -9 6 -17 30
-19 35 -2 4 10 62 14 113 6 12 -2 19 2 18 10 -4 17 12 15 31 -4 17 -16 55 -11
68 9 5 8 15 7 32 -3 33 -17 33 -32 0 -24 -17 4 -31 1 -42 -10 -9 -9 -26 -24
-37 -32 -19 -14 -17 -15 23 -11 37 5 42 3 42 -15 0 -11 -8 -22 -20 -25 -21 -6
-29 -53 -9 -53 5 0 7 4 4 10 -3 5 0 7 9 4 9 -3 17 2 21 15 8 27 21 27 29 -1 5
-22 6 -22 20 -3 9 11 16 30 16 43 0 12 5 22 11 22 6 0 9 6 6 14 -3 8 -3 17 0
20 8 8 40 -57 34 -69 -8 -15 -12 -115 -4 -115 3 0 14 7 24 16 18 16 44 11 34
-7 -4 -5 -1 -9 4 -9 6 0 11 16 11 35 0 34 -13 47 -23 23 -3 -7 -6 -4 -6 7 -1
27 35 51 43 29 3 -8 11 -12 17 -8 8 4 9 -1 4 -16 -6 -19 -4 -22 9 -17 13 5 16
-1 16 -34 0 -44 -22 -52 -28 -11 -5 32 -24 27 -20 -5 2 -16 12 -32 24 -38 11
-6 19 -16 16 -23 -4 -14 -29 -16 -34 -2 -2 6 -9 6 -18 0 -12 -8 -12 -11 2 -27
8 -10 13 -24 11 -30 -3 -7 3 -13 12 -13 10 0 15 7 13 18 -3 20 9 42 23 42 6 0
7 -9 4 -20 -5 -17 -2 -20 24 -20 24 0 31 -4 31 -19 0 -11 -9 -26 -20 -34 l-21
-14 21 -6 c14 -4 23 0 28 12 6 15 10 15 32 4 18 -9 20 -13 8 -13 -10 0 -18 -7
-18 -15 0 -8 5 -15 10 -15 6 0 10 4 10 9 0 5 10 6 23 3 20 -5 19 -6 -10 -14
-32 -8 -46 -28 -20 -28 6 -1 1 -10 -12 -21 l-24 -20 44 7 c24 4 46 11 47 16 6
13 28 9 42 -7 10 -12 10 -19 2 -27 -21 -21 -13 -38 18 -38 28 0 57 -29 43 -44
-3 -3 -1 -6 5 -6 7 0 12 -7 12 -16 0 -8 -4 -12 -10 -9 -6 3 -10 -4 -10 -17 0
-19 2 -20 11 -8 9 12 10 10 5 -9 -3 -13 2 -38 11 -55 15 -28 14 -31 -4 -43
-23 -15 -20 -63 3 -63 7 0 11 -6 8 -14 -3 -8 -1 -17 5 -20 6 -4 8 -13 5 -21
-3 -7 0 -23 6 -35 15 -28 -1 -48 -19 -26 -10 12 -10 23 -3 46 6 16 7 32 2 35
-10 6 -15 -1 -23 -36 -9 -34 37 -86 59 -68 11 9 14 8 14 -5 0 -9 -7 -16 -16
-16 -10 0 -14 -6 -11 -14 3 -7 0 -19 -6 -25 -8 -8 -7 -11 5 -11 9 0 19 6 21
13 4 10 6 10 6 0 1 -15 41 -18 41 -3 0 6 -7 10 -15 10 -10 0 -15 11 -15 35 0
25 4 35 16 35 10 0 14 -6 10 -15 -4 -11 2 -15 20 -15 26 0 26 7 -5 44 -15 18
-15 19 3 13 10 -4 25 -2 33 4 7 7 16 9 19 6 9 -9 -6 -28 -17 -22 -11 7 -12
-15 -1 -32 4 -7 23 -16 42 -19 19 -4 31 -3 27 2 -3 5 1 20 9 34 10 19 13 21
14 7 0 -10 6 -20 14 -23 19 -7 31 -78 16 -101 -10 -16 -10 -15 -5 5 8 27 -10
29 -27 3 -13 -21 -38 -17 -38 5 0 18 -34 18 -48 1 -8 -10 -6 -13 10 -14 21 -2
58 -30 58 -45 0 -4 -9 -8 -19 -8 -11 0 -21 -6 -24 -12 -4 -10 -7 -10 -18 0
-11 10 -10 12 5 12 10 0 16 6 13 13 -2 6 -14 11 -25 10 -16 -2 -22 5 -27 28
-7 30 -7 30 -27 12 -15 -13 -22 -15 -25 -5 -3 6 -8 12 -13 12 -9 0 22 -69 32
-70 3 0 4 9 1 20 -6 24 12 27 21 4 8 -20 -1 -34 -20 -34 -8 0 -14 -5 -14 -11
0 -5 4 -8 9 -4 6 3 14 -3 20 -12 9 -15 12 -16 20 -4 12 18 27 7 33 -24 3 -13
1 -22 -3 -19 -5 3 -9 -2 -9 -10 0 -9 -13 -28 -29 -44 -29 -27 -29 -28 -11 -50
12 -15 21 -19 25 -11 4 6 3 15 -3 21 -10 10 27 60 40 52 15 -9 8 -34 -9 -35
-12 0 -14 -2 -5 -6 8 -3 25 0 38 8 21 11 26 10 38 -7 18 -23 27 -69 20 -89 -4
-8 -1 -22 6 -30 7 -9 10 -18 7 -21 -3 -4 1 -13 9 -21 8 -9 12 -23 9 -34 -5
-16 -2 -18 17 -15 13 2 28 -1 34 -6 8 -5 14 -3 18 7 3 9 10 13 16 10 6 -4 7
-12 1 -22 -10 -18 -3 -53 10 -53 5 0 9 11 9 25 0 14 5 25 10 25 6 0 10 -3 10
-7 0 -12 58 -14 65 -2 4 5 11 7 16 3 6 -3 17 2 24 12 12 16 14 17 15 3 0 -22
-18 -35 -58 -44 -26 -5 -33 -11 -30 -28 2 -12 11 -21 23 -22 11 -1 30 -5 42
-9 16 -5 25 -1 36 15 l15 21 11 -21 c7 -13 22 -21 36 -21 14 0 25 -4 25 -9 0
-5 14 -12 31 -16 21 -5 29 -11 25 -22 -3 -8 -6 -17 -6 -19 0 -2 -4 -4 -10 -4
-5 0 -10 7 -10 15 0 8 -7 15 -15 15 -8 0 -15 -4 -15 -10 0 -5 -7 -10 -15 -10
-8 0 -15 5 -15 10 0 6 7 10 15 10 8 0 15 4 15 9 0 14 -82 19 -103 7 -15 -9
-22 -7 -37 12 -12 15 -20 18 -23 10 -6 -21 -37 11 -37 38 0 13 -4 24 -10 24
-5 0 -10 -7 -10 -15 0 -8 -5 -14 -11 -13 -6 2 -14 -3 -16 -9 -3 -7 2 -13 11
-13 16 0 21 -11 11 -22 -10 -9 -65 46 -65 64 0 10 -4 18 -10 18 -18 0 -10 -25
20 -60 16 -19 30 -41 30 -48 0 -7 5 -10 10 -7 6 3 10 -1 10 -9 0 -11 12 -15
50 -14 27 1 47 5 44 10 -3 5 -10 6 -15 3 -5 -4 -9 -1 -9 4 0 16 23 13 46 -4
26 -20 33 -19 27 6 -4 16 -2 20 8 17 18 -6 21 -48 3 -48 -8 0 -14 -4 -14 -10
0 -5 -5 -10 -11 -10 -6 0 -9 7 -5 15 6 17 -9 21 -20 4 -3 -6 -15 -9 -25 -6
-22 6 -25 -3 -6 -22 10 -10 8 -15 -6 -26 -16 -11 -17 -17 -7 -35 7 -12 10 -30
7 -40 -2 -10 -1 -23 3 -30 15 -24 23 31 9 58 -11 20 -11 26 -1 29 6 3 12 13
12 24 0 10 5 19 10 19 6 0 10 -6 10 -14 0 -8 8 -17 18 -19 13 -4 11 -5 -5 -6
-13 -1 -23 -7 -23 -16 0 -16 28 -18 70 -5 24 7 24 8 5 15 -33 14 -47 45 -20
45 9 0 12 -6 8 -17 -5 -15 -3 -16 8 -5 18 17 28 15 26 -6 -2 -30 24 -81 38
-76 12 5 28 -30 17 -40 -3 -3 -19 -6 -37 -6 -23 0 -31 5 -32 19 -1 14 3 18 13
14 8 -3 14 0 14 6 0 6 -4 11 -10 11 -5 0 -7 7 -4 15 4 8 1 15 -5 15 -7 0 -15
-8 -18 -17 -6 -14 -7 -14 -12 -1 -5 13 -9 12 -25 -3 -19 -19 -19 -19 2 -19 18
0 22 -6 22 -30 0 -29 2 -30 35 -28 41 2 52 -6 35 -27 -16 -19 -30 -19 -30 1 0
14 -2 14 -15 1 -13 -14 -11 -19 15 -47 17 -18 30 -26 30 -19 0 7 3 10 6 6 9
-8 -6 -48 -16 -42 -10 6 -35 -23 -27 -32 4 -3 13 -1 21 6 8 7 27 9 43 6 15 -3
22 -2 16 1 -7 3 -13 13 -13 22 0 19 47 45 56 31 3 -5 -2 -9 -10 -9 -19 0 -21
-21 -3 -39 10 -10 7 -17 -15 -36 -34 -30 -28 -51 18 -59 20 -4 34 -13 34 -21
0 -18 21 -20 38 -3 9 9 12 7 12 -10 0 -12 5 -22 10 -22 6 0 10 -7 10 -15 0 -8
-4 -15 -10 -15 -5 0 -10 5 -10 10 0 18 -20 10 -52 -20 -28 -27 -56 -41 -45
-22 3 4 -5 15 -18 24 -22 17 -23 16 -29 -4 -3 -12 -3 -24 -1 -27 3 -2 5 1 5 7
0 7 7 12 15 12 8 0 15 -7 15 -15 0 -18 14 -19 43 -4 16 9 22 9 25 0 3 -8 9 -6
18 6 12 16 15 16 24 3 6 -10 10 -11 10 -2 0 6 5 12 11 12 5 0 7 -4 4 -10 -4
-6 6 -10 23 -10 17 0 32 -6 36 -15 3 -8 2 -14 -2 -13 -4 1 -15 -2 -24 -6 -19
-9 -25 -36 -8 -36 6 0 10 5 10 10 0 6 11 10 24 10 18 0 25 7 29 29 6 28 30 46
47 36 5 -3 7 -12 3 -21 -4 -10 -9 -12 -18 -4 -10 8 -14 2 -20 -27 -9 -51 -23
-67 -43 -51 -13 11 -14 9 -7 -12 4 -14 13 -28 19 -32 8 -6 8 -8 -1 -8 -7 0
-17 8 -22 18 -6 9 -11 13 -11 7 0 -5 -7 1 -15 15 l-14 25 -1 -34 c0 -24 4 -32
13 -28 8 3 29 -8 48 -24 19 -16 38 -29 42 -29 4 0 12 -10 17 -22 l9 -23 0 23
c1 12 6 22 12 22 7 0 8 -7 4 -17 -3 -10 -7 -20 -8 -23 -5 -18 25 -70 40 -71
10 0 13 -3 6 -5 -7 -3 -1 -15 15 -31 20 -20 29 -23 42 -15 28 17 44 -1 37 -45
l-7 -40 36 -1 c20 -1 32 3 29 8 -3 6 -14 10 -23 10 -13 0 -14 2 -3 9 9 6 10
11 2 15 -6 4 -9 12 -5 17 4 6 11 6 20 -2 7 -6 11 -15 8 -20 -3 -5 3 -9 13 -9
10 0 23 -8 30 -18 8 -14 20 -18 41 -14 19 2 31 -1 35 -10 4 -12 -5 -13 -47 -7
-28 4 -55 3 -61 -2 -5 -6 -2 -9 8 -9 20 0 23 -26 3 -33 -9 -3 -12 -15 -9 -31
6 -28 -10 -33 -52 -17 -19 8 -19 8 3 20 17 9 21 17 16 36 -4 16 -2 25 6 25 6
0 8 5 5 10 -4 6 -15 8 -25 5 -10 -3 -21 -1 -25 5 -3 5 -21 10 -38 10 -24 0
-28 3 -17 10 9 6 10 10 3 10 -37 0 -18 -39 32 -68 19 -11 19 -11 -2 -12 -13 0
-23 -5 -23 -11 0 -6 7 -9 15 -5 9 3 15 0 15 -9 0 -8 -4 -15 -9 -15 -16 0 -19
-49 -4 -54 23 -9 25 -7 18 14 -4 11 -2 20 4 20 14 0 51 -32 51 -43 0 -5 7 -15
15 -23 8 -8 12 -21 9 -28 -9 -24 17 -29 40 -7 12 12 28 21 35 21 7 0 10 4 6 9
-9 16 9 20 23 5 11 -12 10 -14 -3 -14 -8 0 -15 -4 -15 -10 0 -5 -11 -12 -24
-16 -13 -3 -27 -15 -30 -26 -5 -20 -6 -20 -31 -4 -15 10 -29 15 -32 12 -4 -3
-12 -1 -20 5 -21 18 -15 4 11 -24 18 -19 26 -23 35 -14 9 9 14 9 20 -2 6 -9
11 -10 15 -2 12 18 28 12 21 -8 -4 -14 0 -20 17 -24 36 -10 6 -30 -44 -30 -36
0 -39 -1 -19 -8 15 -6 21 -14 17 -25 -3 -8 -2 -12 3 -9 13 8 18 -45 7 -72 -5
-13 -18 -23 -28 -23 -16 0 -17 -3 -8 -20 6 -11 7 -20 3 -20 -4 0 0 -5 10 -11
12 -7 16 -18 13 -32 -3 -12 -3 -16 0 -10 4 10 11 10 26 2 15 -8 23 -8 31 0 9
9 6 13 -11 17 -26 7 -28 17 -6 34 11 10 14 23 8 54 -3 23 -11 47 -16 54 -8 9
-5 12 11 12 11 0 21 5 21 10 0 6 -9 10 -20 10 -11 0 -20 7 -20 15 0 8 9 15 20
15 11 0 20 -5 20 -11 0 -7 12 -10 33 -6 36 6 67 -11 67 -36 0 -19 22 -35 28
-19 4 12 32 5 32 -9 0 -5 -9 -9 -20 -9 -24 0 -26 -13 -5 -34 19 -19 19 -30 0
-23 -8 4 -17 2 -20 -3 -4 -6 1 -10 9 -10 9 0 16 -7 16 -15 0 -13 -4 -13 -26 2
-25 16 -27 16 -40 -2 -11 -15 -16 -16 -29 -5 -8 7 -15 9 -15 5 0 -4 -7 -2 -15
5 -19 15 -28 9 -19 -14 6 -15 20 -20 52 -19 6 1 12 -2 12 -7 0 -6 44 -30 55
-30 3 0 5 7 5 15 0 8 4 15 9 15 5 0 11 -7 15 -15 3 -9 0 -15 -9 -15 -8 0 -15
-4 -15 -10 0 -5 7 -10 15 -10 8 0 15 5 15 10 0 6 5 10 10 10 6 0 10 -7 10 -15
0 -8 5 -15 10 -15 18 0 11 -29 -12 -49 -15 -15 -25 -18 -34 -10 -8 7 -14 7
-19 -1 -13 -22 7 -32 55 -25 38 5 48 3 53 -9 4 -10 1 -16 -8 -16 -8 0 -15 -4
-15 -10 0 -5 -9 -10 -20 -10 -11 0 -20 7 -20 15 0 8 -4 15 -10 15 -14 0 -12
-28 3 -33 9 -3 9 -7 -1 -19 -10 -13 -9 -16 8 -21 13 -3 26 3 39 19 13 17 29
24 53 24 32 0 33 1 33 40 0 22 -3 40 -7 40 -5 0 -8 -5 -8 -10 0 -6 -8 -5 -19
2 -11 7 -17 16 -14 21 3 5 9 4 13 -2 5 -9 13 -9 33 0 15 7 27 16 27 21 0 4 7
8 15 8 8 0 15 -9 15 -20 0 -12 -5 -17 -14 -14 -17 6 -31 -12 -16 -21 15 -9 12
-25 -5 -25 -18 0 -19 -12 -3 -28 8 -8 8 -12 1 -12 -6 0 -8 -11 -5 -25 2 -14
11 -25 18 -25 8 0 14 -6 14 -12 0 -9 3 -8 10 2 11 18 23 9 15 -12 -8 -21 -54
-19 -65 3 -6 9 -7 26 -3 36 6 17 5 17 -15 -1 -22 -20 -31 -43 -11 -30 6 4 9
-1 8 -12 -2 -11 0 -25 4 -31 5 -7 4 -13 -2 -13 -5 0 -13 -9 -16 -20 -10 -32
-27 -23 -23 13 2 21 -1 31 -9 29 -7 -1 -13 5 -13 13 0 8 5 15 10 15 6 0 10 5
10 10 0 6 -7 10 -15 10 -8 0 -15 -6 -15 -14 0 -8 -7 -17 -16 -20 -22 -8 -26
-8 -19 3 3 5 1 12 -4 15 -5 4 -12 2 -16 -4 -3 -5 -17 -7 -31 -4 -14 4 -24 2
-24 -5 0 -6 -7 -11 -15 -11 -8 0 -15 -4 -15 -10 0 -16 27 -12 34 6 3 8 10 13
15 9 6 -3 7 -13 4 -21 -5 -14 -3 -15 16 -4 13 6 35 8 53 5 25 -6 29 -11 25
-31 -2 -13 1 -25 7 -28 6 -2 -15 -2 -46 1 -43 4 -58 2 -58 -7 0 -7 8 -10 20
-7 26 7 35 -9 13 -22 -11 -6 -13 -11 -5 -11 7 0 20 7 28 15 25 24 47 15 59
-23 6 -22 5 -23 -17 -17 -18 5 -20 4 -8 -4 8 -6 23 -11 34 -11 15 0 17 -5 12
-31 -5 -27 -4 -30 15 -24 13 5 25 2 30 -6 13 -22 20 -4 10 25 -6 14 -17 26
-24 26 -12 0 -47 59 -47 81 0 5 11 7 23 4 20 -5 27 0 40 27 14 28 17 30 17 11
0 -15 6 -23 18 -23 13 0 14 -2 3 -9 -7 -5 -10 -14 -7 -20 4 -6 11 -9 16 -6 5
3 19 1 30 -5 16 -8 25 -8 35 0 17 14 15 50 -2 50 -7 0 -13 5 -13 10 0 6 -9 10
-21 10 -11 0 -19 5 -17 12 6 16 46 29 53 18 4 -6 1 -10 -4 -10 -6 0 -11 -4
-11 -10 0 -5 6 -10 14 -10 7 0 19 -13 26 -30 7 -16 18 -35 26 -41 23 -19 16
-28 -23 -31 -42 -3 -55 -22 -21 -32 21 -6 21 -7 6 -17 -14 -8 -15 -13 -6 -28
9 -15 8 -22 -4 -34 -10 -11 -19 -12 -26 -5 -15 15 -49 -7 -54 -37 -4 -21 -3
-23 9 -13 12 10 17 9 24 -5 13 -23 29 -22 29 2 0 11 5 23 11 26 17 11 21 -2 8
-27 -14 -26 -21 -98 -9 -98 4 0 10 -9 13 -19 4 -15 -1 -21 -22 -24 -24 -4 -23
-4 5 -6 18 0 34 -8 38 -16 7 -19 26 -20 26 0 0 7 7 18 16 23 15 8 15 10 0 15
-9 4 -16 2 -16 -3 0 -6 -7 -10 -15 -10 -27 0 -16 15 25 33 50 21 50 21 50 -2
0 -22 25 -45 39 -37 6 4 8 13 4 21 -3 8 0 15 6 15 6 0 11 -6 11 -12 0 -9 4 -8
10 2 8 13 10 12 10 -2 0 -10 6 -18 14 -18 8 0 16 -7 20 -15 3 -8 1 -15 -5 -15
-19 0 -4 -53 19 -68 19 -12 23 -13 20 -1 -2 8 3 13 11 11 7 -1 20 5 28 15 13
17 14 17 9 -2 -7 -25 29 -53 38 -30 3 8 1 15 -4 15 -6 0 -10 6 -10 14 0 9 7
12 21 9 14 -4 19 -12 16 -24 -3 -11 2 -24 11 -30 14 -9 13 -10 -5 -6 -13 3
-26 1 -29 -4 -3 -6 -16 -4 -30 5 -30 21 -34 20 -34 -4 0 -27 -14 -25 -44 5
-25 25 -56 33 -56 15 0 -5 7 -7 15 -4 9 4 15 0 15 -10 0 -21 -10 -20 -40 6
-16 14 -21 22 -12 25 6 3 12 14 12 24 0 11 4 18 9 14 13 -7 24 12 16 26 -5 7
-13 5 -24 -5 -14 -13 -19 -13 -41 4 -34 26 -39 25 -37 -7 2 -25 -1 -28 -24
-25 -23 2 -28 -3 -42 -49 -19 -59 -21 -91 -7 -105 5 -5 11 -23 12 -39 1 -17 6
-36 11 -42 12 -17 -5 -17 -21 -1 -16 16 -28 2 -13 -16 10 -11 19 -13 38 -5 25
9 42 0 43 -24 0 -5 5 -5 10 -2 6 3 10 0 10 -8 0 -21 -42 -37 -64 -25 -14 8
-17 7 -14 -3 3 -9 21 -15 45 -15 38 -2 41 0 45 27 3 21 0 30 -14 35 -22 7 -24
24 -3 24 8 0 15 5 15 10 0 6 -4 10 -10 10 -5 0 -7 7 -4 15 8 20 -10 19 -30 -1
-14 -14 -17 -14 -22 0 -3 9 0 22 8 30 33 38 39 47 33 57 -4 6 -13 8 -20 5 -8
-3 -11 2 -8 15 3 10 1 19 -5 19 -5 0 -13 -11 -16 -25 -4 -15 -11 -23 -17 -19
-8 5 -8 9 0 13 6 4 11 16 10 27 -4 38 1 53 22 59 24 8 39 -2 21 -14 -9 -6 -6
-19 14 -55 29 -52 47 -64 68 -47 9 7 17 8 20 3 3 -6 -1 -15 -8 -22 -13 -10
-14 -27 -7 -72 2 -15 31 -8 31 8 0 10 -6 14 -15 10 -8 -3 -15 -1 -15 4 0 6 7
10 15 10 27 0 19 70 -12 102 -15 15 -22 28 -15 28 19 0 62 -47 61 -66 -5 -45
1 -54 34 -55 30 -2 30 -2 5 -6 -30 -5 -37 -17 -14 -26 12 -5 27 -47 30 -87 1
-10 12 -15 36 -15 24 0 35 -5 35 -15 0 -9 -8 -14 -22 -13 -15 2 -23 -4 -26
-20 l-4 -22 -8 23 c-8 24 -26 25 -33 2 -3 -7 0 -10 7 -6 6 4 11 1 11 -8 0 -17
-15 -22 -24 -7 -14 22 -106 21 -106 -1 0 -5 5 -6 10 -3 6 3 10 -1 10 -9 0 -9
-7 -16 -16 -16 -8 0 -13 -4 -10 -9 3 -5 15 -7 26 -4 11 3 20 0 20 -6 0 -6 -4
-11 -10 -11 -5 0 -10 -4 -10 -10 0 -5 7 -10 15 -10 9 0 15 -9 15 -22 0 -19 2
-20 11 -8 9 13 11 13 21 -2 10 -14 14 -11 30 24 10 22 18 42 18 44 0 2 -18 4
-40 4 -29 0 -40 4 -40 15 0 19 9 19 53 0 27 -11 36 -12 40 -2 2 6 8 9 12 5 4
-4 0 -15 -9 -24 -10 -9 -15 -23 -12 -30 3 -8 9 -20 12 -28 4 -11 0 -13 -17 -9
l-23 6 22 -23 c24 -26 27 -41 12 -56 -14 -14 0 -54 19 -54 22 0 71 -23 71 -33
0 -5 5 -5 10 -2 15 9 12 25 -5 25 -8 0 -15 5 -15 11 0 6 7 8 16 5 9 -3 20 -6
25 -6 6 0 9 -8 7 -17 -1 -10 1 -23 5 -30 4 -6 3 -14 -2 -17 -5 -4 -12 -2 -16
4 -9 15 -25 12 -25 -4 0 -7 -9 -16 -20 -19 -11 -3 -20 -11 -20 -18 0 -7 3 -9
7 -5 4 3 13 -4 20 -16 12 -22 12 -22 13 10 0 21 5 32 14 32 21 0 31 -21 15
-31 -11 -7 -10 -9 3 -9 10 0 15 -6 13 -12 -3 -8 5 -14 21 -14 21 -2 25 1 20
19 -5 19 -4 19 12 4 11 -12 13 -20 6 -27 -17 -17 -66 -22 -75 -8 -4 7 -11 9
-16 5 -4 -4 -2 -17 5 -27 7 -12 8 -20 2 -20 -5 0 -10 -7 -10 -15 0 -22 31 -18
37 5 3 11 9 20 14 20 5 0 6 -6 3 -13 -3 -8 0 -26 6 -41 8 -22 13 -26 23 -17
10 7 17 7 25 -1 6 -6 18 -8 28 -4 16 6 16 8 -1 26 -20 22 -13 39 8 21 8 -6 22
-9 31 -5 23 9 20 -11 -5 -27 -17 -12 -19 -18 -10 -42 13 -34 30 -28 23 9 -4
20 -1 25 9 22 8 -3 14 -12 14 -22 0 -18 21 -36 44 -36 7 0 11 6 8 13 -7 20 16
44 41 42 15 -1 22 4 22 17 0 13 7 18 28 18 25 -1 26 -2 9 -15 -15 -10 -17 -18
-8 -32 7 -12 10 -13 11 -4 0 8 7 11 19 8 10 -2 26 0 35 5 10 6 16 5 16 -1 0
-5 -4 -11 -9 -13 -14 -5 -24 -48 -11 -48 6 0 8 -5 5 -10 -5 -8 -11 -7 -21 1
-8 7 -14 7 -14 1 0 -5 11 -17 25 -26 16 -11 22 -22 19 -34 -5 -14 -4 -15 5 -2
6 8 11 40 12 70 2 35 4 43 6 23 3 -23 8 -30 19 -26 16 6 20 -12 4 -22 -5 -3
-10 -12 -10 -18 0 -7 4 -6 11 3 8 11 12 12 16 3 7 -18 20 -16 20 2 0 8 -4 15
-9 15 -4 0 -8 5 -8 11 0 8 4 8 14 0 23 -20 71 -10 71 14 0 11 6 20 13 20 7 0
17 6 21 14 5 8 16 11 26 7 15 -5 15 -9 4 -22 -11 -14 -10 -16 16 -12 24 2 30
-1 29 -14 -1 -14 7 -18 40 -19 37 -2 38 -2 11 -8 -31 -6 -49 -41 -20 -41 8 0
15 -4 15 -10 0 -5 -7 -7 -15 -4 -21 8 -41 -6 -24 -17 11 -7 10 -9 -3 -9 -9 0
-18 5 -20 12 -3 7 -7 6 -11 -5 -5 -13 -1 -17 18 -17 17 0 25 -6 25 -18 0 -10
10 -23 23 -28 12 -6 16 -9 9 -7 -7 1 -15 -4 -18 -12 -9 -23 -42 -18 -46 7 -2
12 -9 23 -16 26 -7 2 -10 -2 -6 -12 4 -11 -3 -24 -21 -38 -22 -17 -26 -27 -21
-49 5 -25 2 -29 -16 -29 -17 0 -19 3 -10 12 15 15 16 58 1 58 -6 0 -17 7 -25
15 -9 8 -21 15 -27 15 -7 0 -6 -4 3 -10 13 -9 13 -12 -2 -24 -12 -9 -16 -23
-14 -47 2 -19 1 -24 -1 -11 -3 17 -8 21 -17 13 -7 -6 -30 -13 -52 -16 -21 -2
-33 -2 -26 1 17 8 15 34 -3 34 -8 0 -15 5 -15 11 0 18 -61 2 -82 -21 -17 -18
-17 -20 -2 -20 16 0 11 -15 -4 -15 -4 0 -13 -4 -20 -9 -16 -10 -21 -5 -27 25
-7 34 3 59 23 59 12 0 18 9 19 28 0 15 -1 19 -4 10 -6 -25 -23 -23 -23 3 0 11
-4 17 -10 14 -5 -3 -10 -17 -10 -30 0 -18 -4 -23 -15 -19 -17 7 -21 -11 -5
-21 6 -3 10 -15 10 -26 0 -14 -4 -18 -12 -13 -9 6 -9 3 0 -9 9 -10 11 -27 7
-48 -6 -27 -4 -30 12 -27 10 2 17 11 15 21 -2 9 1 17 7 17 5 0 16 3 25 6 11 4
16 1 16 -10 0 -9 5 -16 10 -16 6 0 10 9 10 19 0 20 26 36 35 21 7 -11 -10 -56
-25 -65 -7 -4 -9 -18 -5 -33 5 -20 4 -23 -7 -15 -7 6 -25 13 -40 17 -22 5 -28
3 -28 -9 0 -9 5 -13 10 -10 6 4 17 1 25 -5 8 -7 26 -9 44 -5 21 4 38 1 53 -9
12 -9 18 -16 13 -16 -5 0 -4 -5 3 -12 16 -16 15 -28 -2 -28 -8 0 -17 12 -20
26 -9 34 -49 30 -54 -4 -3 -18 -8 -23 -23 -19 -12 3 -19 0 -19 -9 0 -8 10 -14
25 -14 14 0 28 -7 30 -15 15 -49 18 -51 24 -27 8 30 25 33 29 5 3 -19 8 -21
33 -16 18 3 29 1 29 -5 0 -12 -63 -27 -77 -19 -5 3 -24 2 -43 -3 -22 -5 -27
-8 -13 -9 12 -1 24 -7 26 -13 4 -10 6 -10 6 0 1 20 29 14 36 -8 4 -11 19 -27
34 -35 40 -20 67 0 63 48 -3 25 1 36 14 41 10 4 20 2 24 -4 4 -6 15 -7 25 -4
15 6 17 4 12 -10 -11 -27 2 -66 19 -59 11 4 12 9 3 19 -9 11 -8 14 1 14 7 0
18 -7 25 -17 16 -21 35 -9 28 18 -4 16 -11 19 -29 15 -24 -6 -45 11 -22 18 63
20 66 18 70 -29 l3 -45 -37 0 c-20 0 -40 -5 -43 -10 -5 -8 -11 -7 -20 0 -8 7
-19 9 -25 5 -14 -9 45 -63 76 -71 29 -7 32 -24 5 -24 -37 0 -48 -10 -43 -36 4
-22 9 -25 33 -20 32 6 49 -8 22 -18 -10 -4 -13 -10 -8 -14 6 -4 10 -13 11 -19
1 -7 2 -22 3 -34 0 -11 5 -18 10 -15 4 3 6 17 3 31 -3 18 2 32 17 46 17 16 19
24 11 39 -14 27 -12 38 8 43 15 4 15 5 -2 6 -11 1 -16 6 -13 15 3 7 0 19 -6
25 -8 8 -3 11 19 11 40 0 56 12 47 36 -7 18 -6 18 11 2 18 -19 14 -38 -9 -38
-7 0 -16 -7 -19 -16 -9 -23 -8 -24 13 -24 10 0 21 -7 25 -15 4 -11 -2 -15 -24
-15 -20 0 -30 -5 -30 -15 0 -8 4 -15 9 -15 5 0 4 -11 -2 -25 -7 -14 -17 -25
-24 -25 -7 0 -11 -13 -10 -32 1 -18 -2 -48 -7 -65 -5 -22 -4 -33 3 -33 6 0 11
9 11 20 0 11 5 20 10 20 6 0 10 -7 10 -15 0 -8 9 -15 20 -15 22 0 27 16 8 23
-7 2 -10 8 -5 12 4 5 12 4 18 -2 16 -16 1 -53 -22 -53 -10 0 -19 -5 -19 -11 0
-6 9 -8 20 -4 14 5 20 2 20 -9 0 -9 -5 -15 -12 -14 -7 2 -12 -3 -13 -11 0 -27
-25 -24 -25 3 0 13 -4 28 -10 31 -6 4 -10 -7 -10 -24 0 -35 1 -35 -34 -21 -22
8 -24 14 -21 55 2 25 -1 45 -6 45 -11 0 -23 -46 -14 -59 3 -6 1 -11 -6 -11 -8
0 -7 -5 2 -17 10 -11 10 -14 2 -9 -7 4 -13 3 -13 -2 0 -6 7 -13 16 -16 9 -4
14 -13 10 -21 -3 -9 0 -15 9 -15 8 0 15 7 15 15 0 8 5 15 11 15 6 0 9 -9 6
-20 -3 -11 -1 -20 4 -20 5 0 9 10 9 23 0 13 3 17 8 11 4 -7 16 -13 27 -16 13
-2 19 -10 17 -22 -2 -11 1 -22 7 -25 12 -8 3 -51 -10 -51 -5 0 -9 11 -9 25 0
18 -5 25 -19 25 -11 0 -23 5 -26 10 -3 6 -27 10 -52 10 -26 0 -43 -3 -39 -7 4
-5 11 -8 14 -8 33 -3 88 -19 94 -28 11 -18 9 -27 -4 -25 -8 2 -14 -9 -16 -25
-2 -16 -10 -31 -17 -33 -8 -3 -11 -12 -8 -20 5 -13 9 -12 25 3 19 17 21 17 43
-10 28 -32 32 -33 37 -10 3 16 4 16 20 0 17 -17 48 -23 48 -9 0 4 -14 16 -30
26 -23 13 -34 15 -44 7 -10 -9 -15 -8 -20 5 -10 25 -7 34 9 28 11 -5 15 1 15
19 0 14 4 28 9 31 18 11 22 58 7 75 -14 15 -14 20 -1 45 8 15 12 32 9 37 -3 5
2 9 11 9 9 0 14 -4 10 -9 -3 -6 4 -26 15 -46 22 -39 23 -96 2 -103 -14 -4 -16
14 -3 22 12 8 4 36 -19 66 -15 19 -20 21 -20 8 0 -9 7 -24 16 -33 14 -13 14
-20 4 -45 -15 -36 -6 -54 20 -40 29 15 32 13 28 -25 -2 -24 3 -39 12 -46 13
-8 13 -11 -1 -22 -12 -9 -14 -19 -8 -41 5 -17 7 -32 4 -34 -7 -7 -25 9 -25 23
0 19 -41 15 -58 -5 -11 -13 -12 -12 -7 8 5 18 2 22 -15 22 -19 0 -21 -4 -15
-30 4 -19 3 -30 -4 -30 -10 0 -15 14 -12 33 0 4 -3 7 -8 7 -4 0 -11 -21 -14
-47 -4 -41 -2 -50 20 -70 13 -13 21 -28 18 -33 -4 -6 -1 -17 5 -25 9 -11 10
-19 1 -28 -6 -8 -8 -17 -4 -20 15 -15 23 -5 23 28 0 26 3 33 15 29 8 -4 15
-14 15 -24 0 -11 5 -22 10 -25 14 -9 13 68 -2 100 -10 22 -9 28 3 36 12 8 12
10 0 18 -8 5 -11 16 -8 26 8 19 27 11 27 -11 0 -19 20 -18 48 2 13 9 26 13 30
10 3 -4 -5 -14 -17 -23 -18 -12 -20 -17 -10 -24 22 -14 37 -10 35 7 0 9 5 19
13 22 11 3 12 0 6 -14 -5 -11 -8 -30 -8 -44 1 -14 -2 -27 -5 -30 -4 -3 -15
-15 -26 -27 -18 -22 -18 -22 7 -34 21 -10 24 -15 17 -30 -13 -23 -13 -39 0
-39 6 0 10 6 10 13 0 19 33 47 53 47 9 0 17 4 17 10 0 5 -12 7 -27 4 -21 -4
-31 0 -41 15 -10 18 -10 21 4 21 11 0 15 6 11 20 -3 11 -1 23 4 26 5 3 9 13 9
23 0 10 8 25 18 34 21 19 32 22 32 7 0 -5 -7 -10 -15 -10 -8 0 -15 -4 -15 -10
0 -5 11 -10 25 -10 14 0 25 -4 25 -10 0 -5 -10 -9 -21 -7 -17 1 -24 -7 -35
-35 l-13 -38 36 0 c27 0 34 3 29 15 -3 8 -1 15 3 15 18 0 22 -35 5 -47 -18
-13 -17 -14 25 -25 8 -2 15 -12 17 -22 2 -14 0 -15 -13 -4 -14 11 -15 11 -11
-2 5 -16 26 -17 72 -5 22 6 28 5 24 -6 -3 -8 -14 -15 -26 -17 -14 -2 -22 -11
-22 -23 0 -10 -4 -19 -10 -19 -5 0 -7 6 -5 13 5 12 -40 39 -50 29 -10 -10 -5
-32 8 -32 17 0 18 -46 1 -78 -12 -23 -12 -27 1 -30 19 -4 19 -16 -1 -33 -9 -7
-13 -21 -10 -33 3 -12 -2 -24 -12 -32 -19 -14 -17 -19 15 -28 20 -6 21 -4 18
31 -2 26 3 45 15 61 24 30 33 28 26 -5 -5 -28 -5 -28 8 2 10 21 11 32 3 37 -6
4 -14 5 -19 2 -16 -10 -28 34 -15 58 10 19 20 23 60 22 44 0 47 1 45 24 -2 14
3 27 11 30 10 3 13 -3 9 -26 -5 -36 8 -45 37 -26 19 12 21 10 31 -21 6 -19 7
-35 3 -35 -5 0 -9 5 -9 10 0 19 -31 10 -40 -12 -7 -20 -9 -20 -9 -4 -1 26 -30
45 -66 45 -34 0 -70 -23 -60 -38 9 -16 32 -13 39 4 3 8 17 15 31 15 22 0 25
-4 20 -20 -5 -15 -2 -20 12 -21 11 0 13 -3 5 -6 -10 -4 -8 -8 5 -18 17 -13 17
-14 1 -20 -9 -4 -14 -13 -12 -20 3 -8 12 -11 20 -8 7 3 17 -2 20 -11 8 -21 34
-21 34 0 0 8 -4 12 -10 9 -15 -9 -12 1 9 36 l20 32 6 -26 c4 -15 13 -27 20
-27 14 0 27 -38 18 -53 -3 -6 -12 -2 -20 9 -14 19 -15 18 -33 -4 -12 -15 -24
-20 -37 -16 -17 6 -17 6 1 -8 12 -10 17 -22 14 -36 -4 -13 0 -23 9 -26 24 -10
25 -8 18 33 -6 37 -5 39 15 34 22 -6 45 -47 34 -64 -3 -5 -14 -9 -25 -9 -11 0
-23 -10 -28 -22 -8 -20 -14 -23 -58 -20 l-50 4 -12 64 c-7 35 -17 64 -22 64
-12 0 -29 -35 -29 -59 0 -12 -4 -21 -10 -21 -5 0 -10 -7 -10 -15 0 -18 16 -20
23 -2 3 6 6 2 6 -10 1 -13 5 -23 9 -23 4 0 6 16 4 35 -6 47 5 45 18 -4 l10
-39 62 -4 c62 -5 88 5 88 31 0 6 7 11 15 11 18 0 19 -12 3 -28 -6 -6 -8 -15
-4 -19 4 -4 11 -1 17 7 13 21 9 202 -5 219 -8 11 -8 13 0 8 9 -5 12 13 12 63
0 62 -2 70 -19 70 -10 0 -19 4 -19 10 0 5 3 9 8 9 30 -5 31 3 32 193 0 125 -4
196 -11 205 -8 9 -8 13 0 13 6 0 11 18 11 45 0 25 -4 45 -10 45 -5 0 -10 5
-10 11 0 5 4 7 10 4 6 -4 10 1842 10 5315 l0 5320 -3669 0 c-2636 0 -3672 -3
-3677 -11 -4 -8 -9 -7 -15 2 -8 12 -11 11 -20 -1 -8 -11 -12 -12 -16 -2 -7 18
-83 16 -83 -3 0 -8 -5 -15 -10 -15 -6 0 -13 7 -16 15 -4 9 -18 15 -38 14 -26
0 -28 -2 -11 -9z m4533 -5681 c-10 -17 -10 -23 0 -26 27 -10 5 -58 -27 -58 -8
0 -16 -6 -18 -12 -3 -7 2 -13 10 -13 21 0 51 -36 37 -45 -6 -4 -17 -2 -24 5
-8 6 -25 8 -39 5 -20 -5 -27 -2 -32 14 -3 12 -11 21 -16 21 -5 0 -9 9 -9 20 0
11 -4 20 -9 20 -17 0 -19 39 -2 54 22 20 31 20 31 2 0 -9 9 -13 25 -11 14 1
28 -1 31 -6 6 -10 -41 -23 -55 -15 -5 4 -12 2 -16 -4 -3 -5 1 -10 11 -10 11 0
15 -6 11 -20 -3 -11 -2 -20 3 -20 12 0 32 28 23 32 -4 3 -3 3 4 2 7 -2 15 1
18 6 3 5 12 7 20 3 8 -3 15 0 15 6 0 6 -4 11 -10 11 -5 0 -10 6 -10 13 0 7
-17 19 -37 27 -33 11 -35 14 -18 21 11 4 31 5 44 2 22 -5 23 -4 17 23 l-8 29
22 -27 c18 -23 19 -30 8 -49z m500 -845 c35 -10 26 -26 -12 -23 -19 2 -39 0
-43 -5 -4 -4 -3 -6 2 -5 14 5 55 -20 55 -33 0 -5 -9 -8 -20 -5 -13 3 -20 0
-20 -9 0 -8 7 -14 15 -14 8 0 17 -11 21 -25 3 -14 12 -25 19 -25 20 0 26 -16
19 -44 -5 -21 -9 -23 -25 -13 -13 8 -15 13 -6 19 8 5 4 8 -10 8 -19 0 -23 5
-23 34 0 29 -3 33 -19 29 -13 -3 -17 -11 -13 -26 4 -18 2 -20 -9 -9 -7 6 -22
12 -32 12 -13 0 -17 5 -13 15 3 8 1 15 -4 15 -6 0 -10 -4 -10 -10 0 -5 -4 -10
-10 -10 -20 0 -10 21 16 32 20 10 25 18 22 39 -3 16 -1 26 4 23 4 -3 15 4 25
16 18 21 33 24 71 14z m2155 -2745 c3 -12 10 -18 16 -15 14 9 25 -14 12 -27
-17 -17 -13 -29 9 -22 11 4 20 2 20 -4 0 -6 -4 -11 -10 -11 -5 0 -10 -5 -10
-11 0 -7 12 -9 30 -7 17 3 33 1 36 -4 3 -4 -2 -8 -10 -8 -9 0 -16 -7 -16 -16
0 -10 -6 -14 -14 -11 -10 4 -13 1 -9 -9 7 -18 -23 -64 -42 -64 -22 0 -18 20 8
48 l22 24 -35 -4 c-20 -2 -34 -8 -33 -15 1 -6 -5 -14 -13 -17 -12 -4 -15 -2
-11 9 4 8 -1 19 -11 24 -15 9 -14 10 6 11 30 0 28 12 -8 38 -32 24 -42 59 -14
48 9 -3 19 -6 24 -6 5 0 11 -10 13 -22 4 -21 4 -21 6 3 0 14 6 30 12 36 8 8 8
13 0 17 -6 4 -11 0 -11 -8 0 -9 -4 -16 -9 -16 -5 0 -4 14 2 30 13 35 32 39 40
9z m-325 -91 c6 -14 22 -9 22 8 0 8 5 12 10 9 6 -4 10 -18 9 -33 -1 -15 1 -34
5 -43 5 -11 1 -19 -10 -23 -13 -5 -14 -9 -4 -21 10 -12 10 -15 -3 -15 -9 0
-22 -6 -29 -13 -7 -7 -25 -21 -39 -30 -25 -17 -27 -17 -32 2 -3 12 3 29 14 42
10 12 16 26 13 30 -9 16 -22 10 -30 -13 l-7 -22 -18 23 c-21 26 -24 41 -8 41
5 0 8 -4 4 -9 -3 -5 -1 -12 4 -15 13 -9 34 21 25 36 -15 23 -14 48 1 48 9 0
12 -6 9 -15 -4 -8 -1 -15 5 -15 15 0 14 37 -1 43 -7 3 3 3 22 0 19 -4 37 -10
38 -15z"/>
<path d="M23950 24175 c-10 -12 -10 -15 1 -16 16 -1 -74 -35 -141 -53 -29 -9
-52 -10 -66 -4 -14 7 -31 5 -55 -6 -27 -13 -29 -15 -9 -12 14 2 33 7 43 11 9
4 17 3 17 -3 0 -5 -35 -21 -77 -36 -43 -15 -86 -32 -95 -37 -23 -12 -30 -11
-26 3 2 6 15 13 28 15 33 5 39 13 9 13 -29 0 -54 -15 -54 -31 0 -11 -73 -37
-460 -160 -88 -28 -168 -55 -177 -60 -10 -5 -23 -9 -30 -9 -12 0 -191 -54
-598 -181 -201 -62 -845 -250 -1120 -327 -761 -213 -1527 -405 -2095 -526
-1431 -305 -1960 -402 -3025 -555 -113 -16 -268 -39 -345 -50 -602 -87 -1472
-174 -2350 -236 -121 -9 -260 -19 -308 -23 l-89 -8 5 23 c3 19 2 21 -9 12 -11
-9 -14 -7 -14 7 0 24 10 43 -228 -426 -338 -665 -341 -670 -463 -842 -166
-234 -462 -672 -694 -1028 -38 -58 -128 -195 -200 -305 -72 -110 -162 -247
-200 -305 -307 -472 -480 -739 -650 -1005 -196 -308 -234 -367 -299 -467 -18
-29 -71 -111 -116 -183 -45 -71 -103 -161 -127 -198 -25 -38 -84 -132 -132
-210 -48 -78 -188 -302 -311 -497 -123 -195 -244 -389 -270 -430 -25 -41 -202
-325 -392 -630 -314 -504 -529 -853 -618 -1000 -19 -30 -68 -111 -111 -180
-152 -248 -403 -667 -590 -988 -105 -180 -213 -363 -239 -407 -27 -44 -159
-276 -295 -515 -136 -239 -275 -482 -308 -540 -106 -184 -413 -730 -530 -940
-16 -30 -67 -120 -112 -200 -128 -226 -215 -382 -383 -685 -205 -371 -187
-339 -297 -541 -54 -99 -149 -273 -213 -389 -63 -115 -126 -230 -140 -255
-117 -213 -354 -654 -417 -775 -150 -290 -198 -381 -230 -435 -18 -30 -68
-124 -111 -208 -119 -230 -109 -184 36 164 22 54 47 113 54 129 8 17 31 71 51
120 20 50 51 119 67 155 16 36 40 92 53 125 12 33 76 182 140 330 65 149 130
299 145 335 31 73 49 112 248 565 125 286 196 446 267 600 13 28 64 142 115
255 51 113 120 261 152 330 33 69 80 169 104 222 57 127 545 1109 671 1353
160 308 315 596 318 593 4 -3 37 -154 90 -408 38 -182 39 -184 66 -132 7 15
39 70 70 122 31 52 87 149 124 215 38 66 87 149 110 185 23 36 62 103 87 150
80 149 311 559 478 850 92 160 302 526 338 590 14 25 52 90 85 145 32 55 83
141 112 190 158 269 297 504 364 615 41 69 81 136 88 150 8 14 39 66 69 115
42 68 52 92 42 98 -91 55 -251 158 -418 268 -113 75 -281 184 -375 244 -93 60
-215 141 -270 180 -55 39 -110 77 -122 85 -191 130 -983 727 -1293 975 -398
318 -426 336 -414 265 5 -33 41 -361 57 -525 l13 -130 -104 -165 c-124 -197
-336 -533 -405 -645 -603 -970 -1136 -1977 -1582 -2990 -31 -71 -65 -148 -75
-170 -219 -494 -645 -1582 -835 -2135 -180 -523 -364 -1086 -458 -1405 -118
-397 -167 -566 -212 -730 -34 -128 -57 -200 -66 -209 -5 -6 -9 -22 -9 -36 0
-15 -14 -76 -31 -136 -77 -272 -108 -389 -191 -719 -38 -154 -71 -287 -73
-295 -2 -8 -17 -73 -33 -145 -36 -156 -47 -210 -118 -560 -30 -148 -59 -286
-64 -306 -6 -20 -12 -56 -15 -80 -2 -24 -11 -80 -20 -124 -66 -331 -194 -1077
-214 -1240 -5 -44 -23 -172 -40 -285 -73 -488 -168 -1324 -174 -1535 -1 -30 1
-55 5 -55 10 0 16 31 13 67 -2 25 1 33 13 33 14 0 14 2 3 9 -9 6 -12 22 -7 57
14 122 27 244 46 424 24 227 61 532 96 780 13 96 31 225 39 285 42 317 141
922 190 1160 7 39 28 151 46 250 17 99 33 187 34 195 2 8 15 78 29 155 15 77
31 158 36 180 5 22 25 121 45 220 35 174 47 231 122 550 53 227 128 517 261
1010 29 106 47 171 204 715 306 1066 672 2128 1110 3220 153 381 377 903 390
908 4 2 8 10 8 17 0 13 81 194 225 505 124 269 439 891 588 1160 254 462 604
1064 707 1215 15 22 67 105 116 185 81 134 184 298 341 544 36 58 65 93 67 85
5 -13 13 -76 51 -414 8 -66 23 -203 35 -305 l21 -185 -237 -395 c-130 -217
-246 -411 -257 -430 -40 -73 -222 -388 -268 -468 -27 -45 -49 -84 -49 -86 0
-2 -25 -48 -56 -102 -181 -319 -508 -960 -701 -1373 -363 -777 -838 -1899
-1108 -2616 -21 -55 -52 -138 -71 -185 -31 -81 -147 -401 -236 -650 -22 -63
-46 -128 -53 -145 -7 -16 -28 -77 -47 -135 -19 -58 -113 -341 -210 -630 -213
-635 -387 -1186 -509 -1613 -11 -37 -23 -75 -28 -85 -5 -9 -14 -37 -20 -62 -7
-25 -16 -58 -20 -75 -17 -58 -112 -381 -131 -445 -10 -36 -29 -101 -40 -145
-12 -44 -40 -152 -64 -240 -52 -193 -53 -198 -116 -455 -135 -543 -146 -590
-173 -717 -6 -29 -15 -53 -19 -53 -4 0 -8 -12 -8 -28 0 -15 -29 -158 -65 -317
-36 -160 -65 -298 -65 -308 0 -9 -4 -25 -9 -35 -6 -9 -15 -44 -20 -77 -6 -33
-28 -148 -49 -255 -22 -107 -47 -238 -57 -290 -27 -152 -45 -252 -55 -300 -5
-25 -17 -96 -26 -157 -9 -62 -20 -111 -24 -108 -5 3 -6 -4 -3 -14 3 -11 -2
-57 -11 -103 -29 -156 -66 -401 -106 -708 -6 -41 -16 -122 -24 -180 -24 -179
-45 -348 -66 -535 -11 -99 -24 -214 -30 -255 -9 -74 -19 -172 -25 -240 -1 -19
-8 -107 -14 -195 -13 -170 -24 -230 -44 -238 -7 -3 -5 -6 5 -6 9 -1 20 4 23 9
15 25 24 7 10 -20 -23 -44 -51 -142 -47 -162 6 -31 17 -20 41 42 14 34 28 63
33 66 11 7 2 -15 -45 -116 -22 -47 -59 -131 -82 -187 l-43 -103 11574 0 11574
0 -2 12092 c-3 11050 -4 12093 -19 12096 -9 1 -22 -4 -29 -13z m-11810 -3785
c-116 -231 -210 -422 -210 -425 0 -19 -219 -402 -275 -480 -216 -301 -544
-784 -984 -1447 -670 -1009 -691 -1041 -766 -1158 -38 -61 -126 -197 -193
-302 -208 -325 -619 -969 -661 -1038 -23 -36 -65 -103 -95 -150 -30 -47 -81
-128 -114 -180 -33 -52 -153 -243 -267 -425 -264 -420 -550 -884 -792 -1285
-714 -1183 -718 -1191 -1005 -1685 -80 -137 -243 -421 -363 -630 -120 -209
-263 -459 -319 -555 -190 -326 -745 -1319 -971 -1735 -59 -110 -149 -276 -200
-370 -51 -93 -110 -201 -130 -240 -21 -38 -64 -117 -95 -175 -32 -58 -77 -141
-100 -185 -24 -44 -66 -123 -95 -175 -29 -52 -81 -149 -115 -215 -149 -284
-292 -547 -296 -542 -2 2 29 66 69 143 41 76 140 270 222 429 194 380 354 685
455 865 23 41 60 109 82 150 23 41 78 143 123 225 45 83 124 229 175 325 51
96 105 198 120 225 15 28 65 120 110 205 46 85 113 207 150 270 37 63 84 147
105 185 21 39 75 135 120 215 45 80 133 237 195 350 62 113 134 243 160 290
254 454 388 691 470 835 53 94 138 242 188 330 227 402 468 823 658 1147 282
482 277 472 496 833 335 549 577 943 821 1335 50 80 167 269 262 420 155 250
455 728 717 1145 215 342 503 795 648 1020 42 66 139 217 215 335 176 275 333
518 620 955 62 94 147 224 190 290 382 586 864 1295 880 1295 2 0 -90 -189
-205 -420z m-460 -922 c-152 -289 -399 -770 -522 -1018 -134 -269 -151 -298
-308 -520 -413 -584 -1074 -1560 -1592 -2350 -145 -221 -311 -476 -382 -585
-39 -60 -113 -173 -163 -250 -79 -119 -203 -313 -653 -1020 -310 -486 -767
-1239 -1185 -1950 -244 -414 -261 -444 -395 -675 -62 -107 -144 -247 -181
-310 -37 -63 -107 -185 -156 -270 -50 -85 -157 -271 -239 -413 -82 -141 -178
-308 -213 -370 -286 -504 -410 -723 -481 -852 -45 -82 -102 -184 -125 -225
-24 -41 -76 -133 -116 -205 -40 -71 -101 -182 -137 -245 -172 -307 -372 -672
-372 -677 0 -3 -8 -17 -18 -31 -11 -15 -39 -65 -64 -112 -113 -211 -171 -316
-186 -332 -8 -10 -12 -18 -8 -18 4 0 -1 -12 -11 -27 -10 -16 -28 -46 -38 -67
-41 -80 -58 -111 -64 -116 -4 -3 -24 -39 -44 -80 -21 -41 -54 -104 -73 -140
-19 -36 -81 -153 -137 -260 -55 -107 -132 -253 -169 -325 -37 -71 -82 -160
-100 -197 -18 -38 -36 -68 -41 -68 -7 0 362 737 473 945 21 39 66 125 101 192
34 67 67 119 72 116 6 -3 7 -1 3 5 -5 9 20 65 44 97 4 6 44 82 90 170 119 232
260 494 287 537 12 21 23 40 23 44 0 3 55 108 121 232 67 125 158 295 202 377
107 202 134 252 240 445 186 342 261 477 292 530 18 30 72 127 120 215 177
321 467 837 610 1085 42 74 120 209 173 300 52 91 122 212 155 270 34 58 77
134 97 170 68 120 493 848 646 1105 454 759 813 1352 1089 1795 266 426 518
828 581 926 69 108 72 113 278 439 91 143 270 424 398 624 209 328 307 478
628 971 234 358 931 1404 1046 1568 33 48 147 212 253 365 106 152 194 277
196 277 3 0 -18 -42 -45 -92z m-668 -1350 c-5 -7 -51 -94 -102 -193 -51 -99
-114 -220 -140 -270 -26 -49 -68 -128 -92 -175 -282 -535 -373 -706 -440 -828
-43 -79 -78 -145 -78 -147 0 -3 -98 -143 -218 -312 -217 -307 -510 -727 -698
-1003 -54 -80 -129 -190 -167 -245 -400 -582 -959 -1429 -1389 -2105 -134
-212 -323 -508 -419 -658 -178 -279 -235 -371 -469 -757 -140 -231 -234 -390
-725 -1235 -81 -140 -192 -329 -245 -420 -119 -203 -431 -750 -570 -1000 -56
-102 -122 -219 -145 -260 -231 -409 -698 -1248 -756 -1357 -97 -183 -165 -307
-301 -548 -47 -82 -110 -197 -140 -255 -31 -58 -84 -157 -118 -220 -34 -63
-89 -167 -123 -230 -33 -63 -73 -135 -89 -160 -25 -40 -28 -42 -28 -20 l-1 25
-10 -24 c-7 -17 -6 -27 2 -32 8 -5 7 -13 -6 -30 l-17 -24 7 24 c5 16 4 21 -4
17 -6 -4 -10 -20 -9 -34 2 -33 -9 -55 -24 -46 -8 5 -9 1 -5 -10 10 -25 -22
-76 -42 -68 -13 5 -14 3 -3 -10 14 -18 5 -51 -12 -45 -7 3 -13 -6 -14 -19 -2
-22 -38 -100 -52 -114 -3 -3 -68 -129 -144 -280 -161 -318 -186 -366 -186
-355 0 17 35 105 42 105 5 0 8 4 8 10 0 20 85 197 378 790 260 525 321 640
337 634 11 -5 19 9 42 71 3 6 -3 1 -11 -9 -18 -23 -21 -14 -5 15 5 11 14 17
19 14 6 -4 7 1 3 11 -4 11 -3 15 5 10 7 -4 17 6 27 23 18 36 19 44 3 35 -7 -4
-3 3 10 15 12 12 22 27 22 32 0 12 46 108 118 244 26 50 72 137 102 195 66
128 315 593 340 635 10 17 35 62 56 100 39 74 118 216 165 300 16 28 33 49 38
48 5 -2 9 5 8 15 0 9 17 49 40 87 22 39 60 108 85 155 121 228 698 1259 823
1470 17 30 61 107 97 170 238 421 438 767 766 1330 736 1262 1128 1912 1574
2615 106 166 396 617 511 795 66 102 174 268 240 370 421 648 864 1317 1182
1785 479 705 467 688 704 1025 91 129 181 259 200 288 20 28 39 52 44 52 5 0
5 -6 -1 -12z m-1035 -1994 c-538 -995 -812 -1475 -972 -1699 -301 -422 -747
-1092 -1570 -2355 -347 -533 -1030 -1614 -1269 -2010 -63 -104 -96 -158 -449
-740 -132 -217 -268 -444 -302 -505 -34 -60 -163 -288 -287 -505 -124 -217
-307 -541 -408 -720 -100 -179 -242 -431 -315 -560 -178 -316 -268 -478 -323
-580 -24 -47 -48 -89 -52 -95 -4 -5 -33 -59 -65 -120 -150 -283 -197 -371
-207 -380 -6 -5 -1 9 11 33 12 23 17 42 12 42 -5 0 -18 -18 -29 -41 -18 -37
-21 -39 -25 -17 -3 18 -5 17 -6 -8 0 -18 -8 -44 -16 -60 -17 -33 -11 -46 10
-18 8 10 14 15 14 9 0 -17 -26 -45 -34 -37 -5 4 -5 2 -2 -4 4 -7 0 -25 -9 -40
-13 -24 -15 -25 -11 -6 5 19 3 21 -9 11 -19 -16 -18 5 1 25 8 8 11 17 6 20 -9
6 -32 -24 -44 -56 -4 -12 -2 -15 9 -11 7 3 14 3 14 0 0 -8 -40 -90 -59 -122
-12 -21 -15 -32 -7 -37 8 -6 7 -8 -1 -8 -20 0 -24 18 -11 42 7 13 16 25 20 28
3 3 9 19 13 35 4 20 -5 9 -29 -35 -36 -63 -40 -97 -11 -87 9 4 12 1 9 -7 -7
-18 -34 -16 -34 2 0 25 -13 4 -16 -24 -2 -20 0 -24 9 -15 6 6 16 11 22 11 5
-1 0 -9 -12 -19 -12 -10 -19 -22 -15 -26 4 -5 -1 -5 -10 -2 -10 4 -18 2 -18
-3 0 -6 -5 -9 -11 -8 -6 2 -14 -3 -16 -10 -4 -11 -1 -12 15 -3 14 7 23 8 27 1
3 -5 0 -10 -8 -10 -20 0 -55 -33 -50 -47 3 -7 -2 -13 -11 -13 -16 0 -19 -7
-17 -50 1 -23 0 -23 -8 -5 -10 22 -14 13 -11 -22 1 -13 -4 -23 -10 -23 -6 0
-8 -5 -5 -10 3 -6 -3 -23 -14 -39 -11 -15 -17 -31 -14 -35 4 -4 -3 -9 -15 -13
-12 -3 -22 -12 -22 -20 0 -8 -6 -21 -14 -28 -7 -8 -16 -32 -20 -55 -4 -27 -17
-53 -37 -72 -16 -17 -29 -38 -27 -47 1 -9 -1 -22 -6 -30 -5 -8 -4 -16 2 -20 7
-4 6 -12 -3 -24 -13 -18 -14 -17 -17 5 -3 19 -5 18 -9 -9 -3 -18 -2 -30 3 -27
4 3 8 1 8 -4 0 -5 -11 -15 -25 -22 -18 -9 -23 -19 -19 -32 3 -10 0 -18 -6 -18
-6 0 -10 -6 -7 -12 5 -17 -52 -124 -64 -120 -6 1 -9 -3 -8 -10 3 -18 -42 -118
-52 -118 -16 0 -9 36 16 86 14 27 25 55 25 62 0 7 3 11 8 8 4 -2 15 12 24 32
9 21 26 57 37 81 11 24 18 48 15 52 -3 5 2 9 10 9 10 0 16 9 16 23 0 36 11 67
22 61 5 -3 8 0 6 7 -4 18 22 79 33 79 5 0 9 9 9 19 0 11 7 27 16 35 8 9 13 16
10 16 -6 0 136 284 225 450 28 52 78 148 112 213 34 64 66 117 71 117 6 0 5
-5 -2 -12 -7 -7 -12 -19 -12 -27 0 -12 3 -10 13 4 24 35 28 55 10 48 -12 -5
-10 4 8 37 13 23 32 45 42 47 12 4 16 12 12 23 -4 12 1 22 12 29 10 6 15 11
11 11 -10 0 94 207 249 497 196 368 274 494 132 212 -39 -77 -69 -143 -66
-145 6 -6 7 -4 95 174 75 150 97 192 129 250 17 28 21 42 12 42 -9 0 -8 4 3
13 14 10 55 89 57 110 1 4 10 16 21 27 12 12 18 25 15 30 -4 6 -1 10 4 10 6 0
11 7 11 15 0 8 8 29 18 47 10 18 54 98 97 178 100 186 352 645 425 775 225
400 285 503 292 499 4 -3 6 1 4 8 -3 7 15 47 39 88 24 41 58 102 76 135 17 33
46 85 63 115 18 30 59 102 91 160 120 214 518 905 748 1295 38 66 95 163 125
215 192 331 448 760 557 935 34 55 103 165 152 245 50 80 150 240 223 355 73
116 171 271 218 345 170 271 479 751 717 1115 388 594 1270 1889 1659 2435 61
86 133 188 160 228 27 39 51 70 53 69 1 -2 -80 -156 -180 -343z m-3876 -380
c29 -216 118 -797 124 -812 3 -7 -42 -93 -98 -190 -346 -593 -525 -912 -735
-1312 -182 -347 -480 -944 -574 -1150 -36 -80 -79 -172 -94 -205 -75 -166
-278 -635 -434 -1005 -141 -335 -192 -457 -320 -770 -28 -69 -62 -150 -75
-180 -39 -90 -445 -1119 -528 -1335 -90 -235 -158 -422 -233 -635 -30 -85 -59
-164 -64 -175 -5 -11 -18 -47 -29 -80 -10 -33 -47 -139 -81 -235 -139 -396
-419 -1226 -550 -1630 -123 -383 -151 -464 -161 -474 -5 -6 -9 -23 -9 -38 0
-15 -6 -45 -14 -65 -15 -38 -112 -351 -167 -538 -16 -55 -36 -122 -45 -150 -8
-27 -20 -69 -27 -93 -7 -24 -16 -40 -21 -35 -5 4 -6 3 -2 -4 7 -13 -10 -95
-27 -128 -6 -11 -12 -30 -13 -42 -6 -52 -38 -143 -50 -143 -8 0 -11 -6 -7 -16
7 -19 -12 -112 -38 -179 -10 -28 -19 -59 -19 -70 0 -11 -6 -40 -14 -65 -8 -25
-20 -64 -26 -87 -6 -24 -15 -43 -20 -43 -5 0 -7 -7 -4 -15 8 -20 -45 -207 -62
-221 -16 -13 -19 -28 -4 -19 13 8 13 -7 -1 -42 -6 -15 -13 -37 -15 -48 -2 -11
-10 -40 -18 -65 l-15 -45 0 35 c1 19 1 37 0 40 -1 3 -4 102 -7 220 -3 118 -7
256 -9 305 -2 50 -5 116 -6 148 -1 31 -6 57 -11 57 -8 0 -13 -34 -8 -55 7 -32
6 -132 -3 -143 -5 -6 -6 -12 -1 -12 5 0 9 -60 9 -133 1 -72 4 -144 7 -159 4
-15 2 -28 -3 -30 -7 -2 -6 -14 1 -33 7 -19 8 -31 1 -33 -5 -2 -8 -9 -5 -17 3
-7 0 -16 -5 -20 -6 -3 -9 -10 -6 -15 3 -4 -10 -7 -29 -5 -29 3 -33 1 -29 -16
4 -15 9 -16 24 -8 14 7 19 6 19 -2 0 -8 4 -8 15 1 16 13 18 6 17 -70 -1 -34
-20 -99 -21 -72 -2 22 -21 12 -21 -11 0 -13 -5 -28 -12 -35 -7 -7 -13 -27 -14
-46 -1 -42 -33 -79 -60 -69 -17 6 -17 5 -5 -10 7 -9 27 -17 45 -17 31 0 31 1
28 40 -3 24 0 40 6 40 6 0 12 -17 14 -37 l4 -38 10 35 c9 30 8 36 -8 42 -26
10 -22 41 7 54 21 10 25 9 31 -8 8 -26 -2 -34 -21 -18 -12 10 -15 10 -15 0 0
-7 8 -18 17 -25 16 -12 16 -16 -2 -69 -10 -30 -22 -51 -26 -45 -5 8 -8 8 -13
0 -11 -17 -29 -13 -22 5 5 12 2 15 -10 10 -8 -3 -23 -6 -31 -6 -11 0 -14 -7
-9 -24 8 -34 -13 -47 -68 -41 -38 5 -46 3 -46 -11 0 -13 3 -14 15 -4 11 9 15
9 15 1 0 -7 8 -11 18 -9 12 2 16 -3 15 -17 -1 -11 0 -14 3 -7 3 6 22 12 41 12
27 0 34 -3 29 -15 -3 -9 0 -15 9 -15 8 0 15 5 15 12 0 6 3 8 7 4 12 -12 -26
-34 -47 -29 -11 3 -17 10 -14 15 4 6 -2 8 -12 6 -11 -2 -20 -13 -22 -25 -2
-11 -12 -23 -23 -26 -12 -3 -19 -14 -19 -29 0 -17 3 -19 9 -9 5 7 13 11 19 7
6 -3 15 2 21 11 10 17 10 17 11 -1 0 -11 -8 -28 -17 -38 -16 -18 -16 -19 6
-25 18 -4 21 -10 16 -27 -16 -52 -17 -68 -4 -77 11 -6 10 -9 -5 -15 -11 -4
-22 -1 -28 7 -7 11 -11 11 -15 2 -7 -18 -26 -16 -20 2 4 8 2 17 -3 20 -6 4
-10 16 -10 28 0 20 0 20 15 1 17 -22 21 -3 5 26 -7 13 -7 21 0 25 5 3 10 13
10 22 0 13 -5 12 -26 -7 -21 -21 -27 -22 -34 -10 -8 13 -10 13 -10 0 0 -9 5
-21 12 -28 13 -13 8 -15 -15 -6 -12 4 -14 15 -10 42 3 20 10 42 16 47 7 7 8 6
3 -2 -5 -9 0 -13 13 -13 23 0 24 1 15 24 -3 8 -12 12 -20 9 -8 -3 -14 0 -14 6
0 6 11 11 25 11 14 0 25 5 25 10 0 6 -9 10 -20 10 -13 0 -20 7 -20 20 0 30 77
474 97 560 3 14 7 35 9 47 1 12 10 57 18 100 9 43 18 87 20 98 55 281 83 413
96 450 9 26 9 22 5 -23 -2 -31 0 -50 5 -47 5 3 9 45 9 93 0 49 7 116 16 152 9
36 18 76 21 90 18 87 69 313 94 415 16 66 40 170 54 230 32 137 83 345 131
535 20 80 38 152 40 160 5 22 44 167 61 225 35 120 127 446 144 510 10 39 55
192 100 340 45 149 92 306 105 350 13 44 37 127 55 185 17 58 47 155 65 215
79 265 134 436 266 830 78 231 145 424 150 429 5 6 9 19 9 30 0 12 7 41 16 66
9 25 65 187 124 360 60 173 129 371 155 440 25 69 73 197 105 285 128 347 196
523 323 840 115 286 228 560 282 680 7 17 49 116 93 220 504 1196 954 2105
1524 3075 163 279 319 542 363 615 28 46 79 131 114 190 35 58 65 104 67 102
2 -2 13 -71 25 -153z m204 -1294 c25 -146 59 -348 76 -450 20 -123 28 -190 21
-200 -26 -42 -284 -510 -425 -770 -502 -929 -956 -1897 -1557 -3325 -67 -159
-146 -347 -176 -418 -30 -70 -54 -129 -54 -132 0 -2 -11 -28 -24 -57 -29 -63
-157 -375 -365 -888 -103 -254 -263 -655 -344 -865 -49 -128 -68 -178 -129
-345 -11 -30 -24 -64 -29 -75 -5 -11 -31 -81 -58 -155 -28 -74 -62 -166 -76
-205 -15 -38 -32 -85 -38 -102 -6 -18 -14 -33 -19 -33 -4 0 -8 -11 -8 -25 0
-13 -6 -42 -14 -62 -8 -21 -38 -101 -66 -178 -28 -77 -55 -149 -60 -160 -5
-11 -21 -56 -36 -100 -14 -44 -30 -89 -34 -100 -4 -11 -13 -36 -20 -55 -7 -19
-16 -44 -20 -55 -12 -28 -120 -331 -136 -380 -7 -22 -31 -92 -54 -155 -22 -63
-50 -142 -61 -175 -11 -33 -24 -69 -29 -80 -5 -11 -25 -69 -45 -130 -20 -60
-40 -119 -45 -130 -12 -26 -97 -274 -117 -342 -9 -29 -19 -53 -22 -53 -4 0 -8
-11 -9 -25 -1 -14 -10 -45 -21 -68 -10 -23 -21 -55 -25 -70 -4 -15 -11 -25
-16 -22 -5 3 -7 12 -3 20 3 9 0 50 -6 93 -10 75 -28 264 -36 387 -3 33 -5 60
-6 60 -1 0 -19 140 -24 190 -12 141 -18 184 -25 180 -9 -5 -4 -83 11 -195 5
-41 12 -120 15 -175 2 -55 9 -115 14 -135 7 -24 6 -36 -2 -41 -6 -4 -7 -12 -2
-20 4 -7 9 -22 10 -33 1 -12 5 -38 9 -58 5 -24 4 -38 -3 -38 -7 0 -7 -14 0
-42 10 -45 14 -74 23 -172 3 -32 8 -63 11 -67 5 -8 -22 -114 -34 -134 -4 -5
-7 -15 -8 -22 -6 -40 -99 -295 -102 -280 -2 9 -7 17 -12 17 -5 0 -7 7 -4 15 4
8 12 15 20 15 8 0 14 4 14 9 0 5 3 16 6 25 3 9 1 16 -5 16 -6 0 -11 -8 -11
-18 0 -10 -11 -25 -25 -32 -23 -12 -24 -15 -9 -31 9 -10 13 -22 10 -28 -4 -5
-2 -12 4 -16 16 -10 12 -28 -6 -21 -13 5 -14 -1 -8 -41 4 -27 3 -44 -3 -40
-15 10 -30 -6 -38 -42 -5 -24 -4 -32 4 -26 12 7 8 -24 -11 -74 -10 -27 -13
-26 -22 11 -5 22 -3 26 9 22 17 -7 19 4 5 41 -5 14 -14 24 -19 20 -5 -3 -12
-1 -16 5 -8 13 -25 3 -25 -16 0 -8 9 -14 19 -14 13 0 18 -6 16 -17 -2 -10 -4
-21 -4 -24 -2 -14 -69 -16 -116 -4 -42 10 -46 13 -27 19 22 7 31 26 11 26 -14
0 -39 -26 -40 -42 0 -7 -4 -3 -9 10 -5 12 -15 22 -22 22 -14 0 -52 38 -54 55
0 6 -2 17 -2 27 -1 9 -9 15 -19 14 -23 -4 -29 -26 -7 -26 23 0 9 -13 -16 -15
-24 -2 -24 -2 -1 76 10 35 21 75 24 89 10 49 39 155 47 175 8 19 53 184 70
255 24 103 118 445 172 625 16 55 36 125 45 155 8 30 34 118 58 195 24 77 76
246 115 375 142 467 449 1407 621 1900 39 113 73 213 76 223 3 9 8 17 12 17 4
0 8 10 9 23 5 62 347 1013 580 1612 104 267 213 542 299 755 52 129 100 246
105 260 10 24 11 24 19 5 8 -17 9 -17 5 5 -5 28 8 68 86 260 226 553 566 1348
748 1751 83 183 391 814 454 929 13 25 84 160 157 300 205 395 540 994 782
1400 l51 85 14 -90 c7 -50 33 -209 57 -355z m2704 -86 c-39 -71 -172 -304
-294 -519 -122 -214 -326 -572 -453 -795 -426 -749 -491 -861 -578 -993 -230
-348 -452 -697 -837 -1312 -51 -82 -154 -244 -227 -360 -267 -422 -752 -1199
-964 -1545 -120 -195 -235 -382 -256 -415 -42 -68 -259 -426 -372 -615 -431
-721 -700 -1187 -1043 -1805 -97 -176 -181 -324 -185 -330 -8 -11 -56 -97
-103 -185 -62 -116 -125 -237 -151 -288 -32 -62 -47 -64 -18 -3 11 23 17 41
13 41 -4 0 -13 -11 -19 -25 -6 -14 -17 -25 -23 -25 -6 0 -8 -7 -5 -16 6 -16
-16 -58 -26 -49 -2 3 -5 -1 -6 -8 0 -6 -3 -23 -6 -37 -4 -14 -4 -19 0 -12 3 6
10 12 14 12 5 0 -1 -18 -12 -40 -19 -35 -23 -38 -34 -22 -12 16 -13 15 -14 -3
0 -11 -6 -29 -14 -40 -7 -11 -17 -31 -20 -45 -7 -23 -6 -23 14 5 23 32 23 30
-3 -27 -19 -41 -28 -50 -20 -19 3 10 0 22 -6 25 -6 4 -11 0 -11 -11 0 -10 -7
-31 -15 -46 -8 -15 -11 -35 -8 -44 4 -10 2 -14 -4 -10 -15 10 -31 -13 -31 -45
0 -14 -7 -36 -16 -49 -10 -15 -16 -18 -16 -9 0 13 -2 13 -10 0 -5 -8 -7 -22
-5 -30 2 -8 0 -22 -5 -30 -8 -12 -10 -8 -11 15 -2 43 1 59 14 67 7 4 9 8 5 8
-4 0 6 26 22 59 17 32 30 64 30 70 0 7 5 9 12 5 6 -4 8 -3 5 3 -4 6 0 24 8 39
8 16 15 34 15 41 0 6 3 13 8 15 9 4 57 98 57 113 0 6 11 25 23 43 13 17 20 36
17 42 -3 5 -1 10 4 10 6 0 11 7 11 15 0 8 5 15 10 15 6 0 10 7 10 15 0 8 4 15
9 15 6 0 9 8 9 18 -1 24 47 113 57 104 5 -4 5 -1 1 6 -9 15 71 175 344 692
190 358 300 554 300 534 0 -6 -20 -49 -44 -95 -99 -191 -126 -245 -126 -256 0
-7 -4 -13 -10 -13 -5 0 -10 -5 -10 -12 0 -11 -105 -228 -130 -268 -24 -39 -84
-177 -83 -190 1 -7 -8 -22 -19 -31 -11 -10 -20 -24 -22 -31 -1 -7 -5 -19 -10
-26 -4 -7 -5 -16 -1 -20 8 -8 36 28 30 38 -3 4 4 15 15 25 11 10 20 28 20 41
0 13 5 26 10 29 6 4 8 10 5 15 -3 5 -1 11 4 15 6 3 46 79 90 168 44 89 85 169
90 177 18 28 122 249 121 256 -1 4 2 10 7 13 18 13 184 355 179 368 -3 8 -2
12 2 9 9 -5 57 74 86 144 29 68 83 180 105 220 11 19 63 112 114 205 223 406
402 722 424 751 12 17 23 33 23 36 0 3 34 66 76 139 42 74 90 159 107 189 126
229 612 1055 712 1210 12 19 62 100 110 180 365 601 551 898 1030 1650 718
1126 1403 2164 1834 2780 17 25 55 80 83 122 29 42 54 75 56 74 2 -2 -29 -62
-69 -132z m-2579 -581 c0 -10 18 -110 40 -223 94 -488 159 -838 165 -880 6
-43 2 -54 -63 -175 -274 -511 -725 -1402 -942 -1865 -98 -208 -478 -1046 -600
-1320 -40 -91 -82 -185 -93 -210 -11 -25 -34 -79 -52 -120 -18 -41 -67 -154
-110 -250 -101 -231 -435 -1010 -435 -1015 0 -2 -13 -32 -29 -67 -16 -35 -43
-98 -61 -140 -17 -43 -36 -80 -41 -84 -5 -3 -9 -13 -9 -22 0 -10 -16 -56 -36
-102 -19 -47 -38 -92 -41 -100 -3 -8 -21 -54 -39 -101 -37 -93 -39 -103 -24
-94 16 10 13 4 -49 -116 -33 -63 -166 -323 -297 -579 -343 -673 -338 -665
-346 -670 -3 -3 -10 -18 -13 -33 -4 -15 -13 -27 -21 -27 -8 0 -11 -6 -8 -15 4
-9 0 -15 -7 -15 -8 -1 -43 -60 -79 -133 -97 -196 -121 -240 -131 -230 -5 5
-12 36 -15 69 -3 32 -10 63 -15 68 -13 14 -11 -14 6 -109 13 -68 13 -84 1
-110 -8 -16 -19 -42 -26 -57 -7 -14 -9 -31 -6 -36 4 -6 -6 -23 -21 -38 -15
-15 -28 -36 -28 -48 -1 -11 -7 -22 -13 -24 -7 -2 -12 -13 -12 -23 0 -11 -4
-17 -10 -14 -5 3 -10 -1 -10 -10 0 -9 -5 -26 -12 -38 -7 -12 -13 -26 -13 -32
-2 -24 -25 -63 -39 -68 -9 -4 -16 -15 -16 -25 0 -10 -4 -22 -8 -28 -5 -5 -14
-28 -21 -51 -6 -24 -17 -42 -24 -40 -7 1 -11 -6 -11 -15 1 -10 -3 -15 -9 -11
-6 4 -8 0 -4 -9 3 -9 -1 -24 -8 -35 -8 -10 -15 -25 -15 -34 0 -9 -7 -20 -16
-23 -8 -3 -13 -10 -10 -15 3 -5 -1 -14 -9 -21 -8 -7 -12 -16 -10 -21 3 -4 -5
-25 -19 -46 -13 -21 -30 -55 -37 -75 -7 -21 -17 -38 -21 -38 -4 0 -8 -8 -8
-18 0 -11 -9 -27 -20 -37 -11 -10 -17 -21 -15 -26 7 -10 -30 -74 -41 -72 -5 1
-9 -11 -10 -26 -1 -27 -118 -280 -134 -291 -4 -3 -11 -20 -15 -38 -4 -18 -12
-35 -19 -38 -6 -2 -12 -14 -13 -25 -1 -12 -8 -29 -16 -38 -23 -27 -54 -95 -50
-108 3 -7 0 -13 -6 -13 -6 0 -11 -6 -11 -13 0 -19 -49 -117 -73 -147 -19 -24
-20 -24 -15 -3 3 12 2 23 -2 25 -4 2 -9 26 -12 55 -3 29 -1 50 3 47 4 -2 10 0
13 5 3 5 0 11 -8 14 -8 3 -16 30 -21 71 -7 73 0 101 140 521 35 105 68 206 73
225 13 42 39 118 51 145 5 11 34 94 64 185 105 317 318 931 400 1150 19 52 40
112 47 133 6 20 16 35 20 32 5 -3 7 -12 3 -20 -3 -8 0 -15 6 -15 7 0 9 15 5
43 -5 35 5 72 61 227 37 102 87 241 112 310 24 69 48 134 53 145 5 11 52 135
104 275 102 276 365 959 408 1060 5 14 43 106 83 205 40 99 94 231 119 294 26
63 50 120 55 125 5 6 11 25 15 41 4 17 14 44 21 60 8 17 30 68 48 115 51 126
163 395 309 745 72 170 154 366 183 435 51 121 169 395 313 725 94 216 251
561 326 720 34 72 82 173 106 225 88 191 419 861 524 1060 116 219 421 778
517 948 33 57 59 108 59 113 0 5 5 9 10 9 6 0 10 -8 10 -17z m1339 -1645 c-7
-13 -40 -72 -74 -133 -65 -115 -372 -661 -410 -730 -12 -22 -70 -125 -128
-230 -58 -104 -177 -323 -265 -485 -151 -279 -329 -604 -390 -715 -16 -27 -42
-75 -58 -105 -121 -221 -249 -449 -264 -470 -21 -30 -353 -573 -519 -848 -175
-291 -483 -799 -570 -942 -43 -69 -129 -213 -193 -320 -63 -107 -192 -323
-285 -480 -366 -613 -452 -760 -753 -1285 -119 -209 -238 -415 -264 -458 -25
-43 -46 -80 -46 -82 0 -1 -31 -56 -68 -121 -86 -150 -98 -171 -245 -439 -144
-264 -198 -358 -212 -367 -5 -4 -7 -8 -3 -8 13 0 -205 -410 -218 -410 -5 0
137 276 161 315 7 11 15 32 19 48 4 15 11 27 16 27 6 0 10 9 10 20 0 11 7 23
15 26 10 4 13 14 8 32 -5 21 -3 24 10 19 20 -8 41 26 32 52 -3 10 1 31 10 47
8 16 15 35 15 42 0 6 5 12 10 12 6 0 10 6 10 14 0 7 7 19 15 26 22 18 19 9
-20 -64 -37 -69 -46 -95 -20 -59 36 52 132 249 127 263 -5 15 -21 30 -33 30
-7 0 -22 -40 -20 -52 2 -13 -19 -9 -34 6 -12 11 -12 16 1 32 12 17 13 17 8 2
-11 -32 5 -19 24 19 11 21 33 65 49 98 49 99 83 173 83 184 0 24 423 831 436
831 2 0 -48 -102 -111 -226 -63 -124 -115 -227 -115 -228 0 -1 6 -3 14 -3 9 0
21 22 31 54 10 30 24 57 31 60 8 3 11 10 8 15 -4 6 -3 13 2 17 5 3 40 69 78
146 38 77 86 174 107 216 21 42 35 79 32 83 -4 3 -1 6 6 6 8 0 11 6 7 16 -4
10 -2 13 6 8 7 -5 9 -2 5 9 -3 9 -3 17 1 19 4 2 24 37 45 78 115 230 447 826
426 765 -5 -13 -208 -424 -296 -598 -35 -71 -62 -131 -59 -134 3 -3 27 39 53
93 26 55 50 101 53 104 13 13 290 579 290 595 0 3 0 10 0 16 0 5 5 7 10 4 6
-3 10 2 10 12 0 18 3 24 60 128 91 165 490 850 608 1045 39 63 119 196 178
295 59 99 135 225 169 280 34 55 138 224 230 375 93 151 276 448 408 660 132
212 314 504 405 650 91 146 174 276 184 290 11 14 68 104 127 200 159 259 407
652 649 1030 118 184 253 395 299 468 47 72 87 132 89 132 3 0 -1 -10 -7 -22z
m-1577 -2930 c-16 -29 -78 -143 -137 -253 -59 -110 -115 -213 -125 -230 -80
-135 -582 -1106 -1030 -1990 -256 -505 -519 -1016 -530 -1030 -22 -27 -454
-739 -570 -940 -10 -16 -89 -151 -175 -300 -87 -148 -165 -283 -175 -300 -9
-16 -42 -74 -73 -128 -103 -176 -163 -281 -189 -327 -14 -25 -41 -72 -60 -105
-76 -130 -148 -258 -148 -261 0 -2 -14 -27 -31 -56 -17 -29 -47 -82 -66 -118
-38 -69 -59 -99 -47 -65 4 11 10 25 14 30 4 6 27 46 50 90 24 44 56 103 72
130 15 28 31 58 34 68 4 9 10 17 14 17 4 0 10 8 13 18 6 17 56 108 95 172 24
38 28 55 12 45 -6 -3 -7 1 -4 9 3 9 10 13 15 10 10 -6 50 56 43 68 -3 4 0 8 6
8 7 0 9 9 5 23 -4 15 -3 18 3 8 5 -7 12 -9 15 -5 33 55 56 104 49 104 -5 0
-15 -11 -22 -25 -7 -14 -17 -25 -21 -25 -4 0 -2 10 4 23 20 36 50 66 60 60 6
-4 8 0 4 9 -3 9 1 33 9 54 8 22 17 47 21 57 3 9 9 17 13 17 14 0 23 61 11 73
-8 8 -11 7 -11 -2 0 -8 -11 -24 -25 -37 -15 -14 -22 -29 -19 -38 3 -9 1 -16
-5 -16 -5 0 -9 -15 -7 -34 1 -21 -2 -32 -9 -30 -9 4 -39 -51 -37 -67 1 -4 -7
-5 -17 -2 -13 3 -17 11 -13 29 7 35 -12 29 -31 -11 -17 -35 -11 -50 17 -39 23
9 20 -8 -5 -29 -11 -10 -25 -32 -31 -48 -7 -21 -15 -28 -25 -24 -12 4 -14 0
-10 -15 6 -22 -8 -28 -16 -7 -3 6 -3 -4 0 -23 6 -40 -39 -140 -62 -140 -9 0
-12 -6 -8 -17 4 -11 3 -14 -5 -9 -7 4 -12 1 -13 -6 -2 -32 -9 -53 -18 -56 -6
-2 -11 -10 -11 -17 0 -8 -6 -20 -13 -27 -7 -7 -19 -33 -27 -57 -8 -24 -20 -45
-27 -48 -7 -3 -13 -13 -13 -23 0 -11 -4 -21 -10 -25 -5 -3 -7 -12 -4 -19 3 -7
-2 -16 -11 -20 -9 -3 -14 -10 -11 -15 3 -4 -3 -16 -14 -26 -10 -9 -16 -23 -14
-30 3 -7 -2 -19 -10 -28 -9 -9 -16 -21 -16 -27 0 -7 -9 -29 -20 -49 -11 -20
-29 -57 -39 -83 -11 -27 -25 -48 -30 -48 -5 0 -7 -10 -4 -22 3 -13 2 -20 -2
-16 -4 4 -17 -12 -28 -35 -12 -23 -24 -44 -28 -47 -4 -3 -9 -14 -11 -25 -2
-11 -11 -19 -19 -17 -11 3 -11 1 -2 -9 10 -10 8 -19 -8 -46 -11 -18 -18 -37
-14 -43 3 -5 -1 -10 -9 -10 -9 0 -16 -9 -16 -20 0 -11 -5 -20 -11 -20 -6 0 -9
-7 -5 -15 3 -8 1 -15 -4 -15 -6 0 -10 -6 -10 -14 0 -8 -3 -16 -7 -18 -12 -5
-47 -81 -44 -96 1 -6 -2 -12 -7 -12 -5 0 -19 -20 -31 -45 -12 -25 -27 -45 -32
-45 -6 0 -8 -4 -5 -9 5 -7 -12 -50 -32 -81 -2 -2 -8 2 -13 10 -8 11 -9 10 -4
-7 4 -14 0 -32 -9 -44 l-15 -22 -6 25 c-6 25 25 94 37 83 3 -3 3 5 1 18 -3 14
2 29 11 36 9 8 16 21 16 30 0 9 7 29 15 45 8 15 15 34 15 41 0 7 7 18 15 25 8
7 15 21 15 31 0 10 6 22 13 26 7 4 19 27 27 50 12 39 40 60 40 31 0 -6 3 -8 6
-5 4 4 1 13 -6 22 -10 12 -8 23 9 60 11 25 21 47 21 50 0 4 20 48 43 98 24 51
52 111 62 134 10 23 22 40 25 38 4 -3 10 8 13 24 8 37 44 120 158 356 24 50
44 95 45 100 4 19 36 90 47 104 6 7 12 19 13 27 2 16 65 146 73 154 6 5 18 29
46 95 10 22 31 61 47 87 16 26 31 53 32 60 8 33 29 78 37 78 5 0 9 7 9 15 0 9
11 33 25 55 14 22 37 64 51 93 14 28 34 66 43 82 9 17 33 59 52 94 40 75 47
86 75 126 12 17 34 57 49 90 16 33 38 74 50 90 12 17 33 51 45 78 13 26 28 47
32 47 5 0 7 4 4 9 -4 5 -3 11 2 13 4 1 19 18 32 37 13 19 19 31 12 27 -23 -14
-12 8 28 55 22 26 40 58 40 71 0 13 9 34 20 48 11 14 20 29 20 34 0 5 15 32
34 61 32 48 97 166 134 243 9 17 20 32 24 32 4 0 8 6 8 13 0 7 15 35 33 62 19
28 44 73 58 100 13 28 27 52 32 53 4 2 7 8 7 14 0 5 15 35 34 66 56 95 146
253 146 257 0 14 63 104 70 100 11 -7 41 55 33 69 -3 6 -3 8 1 4 5 -4 25 26
45 65 46 91 180 317 187 317 3 0 -4 -17 -16 -37 -13 -21 -36 -63 -53 -93 -17
-30 -41 -72 -54 -92 -13 -21 -23 -45 -23 -53 0 -9 -15 -44 -34 -78 -58 -105
-168 -309 -198 -367 -16 -30 -41 -77 -57 -105 -57 -103 -122 -228 -261 -500
-78 -153 -146 -286 -151 -295 -11 -20 -203 -406 -246 -495 -19 -38 -38 -77
-43 -85 -5 -8 -34 -64 -65 -125 -31 -60 -67 -130 -81 -155 -17 -31 -23 -53
-19 -72 7 -30 25 -30 23 0 -2 22 31 92 43 92 5 0 9 10 9 23 0 12 9 33 20 47
11 14 20 31 20 38 0 8 9 26 19 40 10 15 19 29 19 32 2 19 63 140 72 140 5 0
10 10 11 23 0 12 13 45 29 72 16 28 44 82 62 120 18 39 67 138 110 221 42 84
81 160 86 170 69 139 350 683 407 789 33 60 117 219 191 358 30 56 75 145 102
197 26 52 50 97 54 100 3 3 31 52 61 110 30 58 75 142 101 188 25 45 45 88 43
95 -1 6 4 11 11 9 6 -1 13 4 14 10 0 7 2 18 3 23 2 6 3 16 4 23 0 7 6 10 11 7
10 -6 18 7 24 37 6 28 18 48 27 42 5 -3 10 1 10 8 1 7 2 18 3 23 2 14 456 776
740 1240 47 77 101 167 121 200 19 33 59 97 88 143 28 45 110 175 180 287 123
195 172 265 109 153z m-1924 -3789 c-110 -212 -908 -1805 -908 -1813 0 -2 -50
-107 -111 -232 -61 -126 -131 -271 -156 -324 -25 -52 -68 -142 -95 -200 -179
-375 -623 -1315 -669 -1417 -19 -41 -131 -277 -192 -403 -12 -25 -65 -110
-117 -190 -53 -80 -115 -174 -138 -210 -23 -36 -42 -62 -42 -58 0 7 101 174
133 218 32 46 137 209 137 214 0 4 46 104 127 274 18 40 31 77 27 84 -4 6 -3
8 3 5 13 -8 24 18 17 38 -4 8 -2 15 4 15 14 0 22 38 8 45 -6 3 -1 3 11 1 28
-5 31 18 5 33 -9 6 -12 11 -6 11 5 0 15 -5 20 -10 7 -7 23 16 49 71 21 45 38
87 38 95 0 8 4 14 9 14 5 0 6 10 3 23 -4 15 -3 18 3 9 11 -17 37 40 35 77 -1
20 0 22 5 8 6 -15 9 -13 19 13 6 16 7 28 2 24 -5 -3 -9 0 -9 5 0 6 6 11 13 11
7 0 20 16 29 36 12 26 13 34 3 30 -8 -3 -11 2 -8 14 3 10 0 21 -6 24 -6 4 -11
15 -11 24 0 12 3 13 12 4 21 -21 29 -13 12 13 -15 23 -15 25 0 25 9 0 16 -7
16 -15 0 -8 5 -15 11 -15 6 0 8 -7 4 -17 -13 -37 12 4 36 56 17 40 21 55 11
59 -6 2 -10 8 -7 12 3 5 11 7 18 5 14 -5 49 63 36 71 -5 3 -16 -10 -25 -28 -8
-18 -13 -24 -11 -12 2 12 0 28 -4 37 -14 24 0 47 29 47 25 0 25 1 6 15 -18 15
-18 15 0 29 10 8 19 26 20 40 0 14 5 26 10 26 4 0 5 -11 2 -25 -7 -28 -4 -30
25 -14 11 5 16 15 13 21 -5 7 -2 8 7 4 8 -4 6 -1 -5 8 -10 8 -15 19 -11 25 3
6 1 11 -5 11 -6 0 -8 5 -5 10 11 18 24 11 31 -17 7 -25 8 -25 15 -8 10 26 11
43 1 28 -5 -9 -11 -6 -21 9 -12 19 -11 20 13 16 21 -4 24 -3 15 8 -6 8 -15 12
-19 9 -12 -7 -25 16 -13 24 5 3 15 22 23 41 25 65 63 105 54 57 l-5 -22 10 23
c12 26 33 30 24 5 -5 -15 -3 -14 10 2 9 11 11 22 6 23 -5 2 -9 11 -9 20 0 15
2 15 11 2 9 -12 10 -12 5 3 -3 10 -6 23 -6 28 0 5 -8 9 -17 9 -14 1 -10 8 15
29 21 18 30 34 27 44 -4 8 4 31 17 51 23 36 42 49 31 21 -3 -10 0 -15 8 -13
16 3 29 18 29 33 0 6 -4 4 -9 -4 -7 -11 -10 -10 -15 5 -8 26 20 134 34 134 5
0 11 13 15 30 4 16 11 33 16 36 10 6 24 36 29 59 1 6 12 24 24 40 13 17 32 56
42 88 12 38 22 56 32 55 10 -2 15 7 16 26 1 16 7 31 14 34 7 2 12 15 12 30 0
14 12 39 28 55 15 17 21 27 15 23 -18 -10 -16 19 2 34 8 7 15 18 15 25 0 8 6
16 13 18 9 4 8 8 -3 16 -13 9 -12 11 3 11 11 0 24 14 33 35 8 20 19 33 23 30
5 -3 7 4 4 15 -3 11 0 20 6 20 6 0 11 7 11 15 0 8 4 15 10 15 5 0 7 7 4 15 -4
8 -1 15 6 15 6 0 9 4 5 9 -3 5 2 17 11 25 9 9 14 23 11 30 -3 8 1 17 8 20 8 3
12 12 9 21 -3 8 -1 15 5 15 6 0 11 7 11 15 0 8 6 15 13 15 8 0 8 3 -2 9 -17
11 -43 3 -35 -10 3 -5 0 -9 -5 -9 -6 0 -11 -10 -11 -23 0 -15 -9 -29 -25 -37
-14 -7 -25 -21 -25 -31 0 -10 -4 -20 -9 -24 -5 -3 -13 -19 -16 -37 -7 -30 -12
-39 -42 -73 -7 -7 -13 -20 -13 -29 0 -8 -5 -18 -10 -21 -6 -4 -8 -10 -5 -15 6
-10 -11 -45 -33 -68 -7 -8 -11 -21 -8 -29 3 -7 -1 -16 -9 -19 -13 -5 -85 -143
-85 -163 0 -5 -7 -11 -15 -15 -8 -3 -15 -14 -15 -25 0 -11 -5 -23 -10 -26 -11
-7 -44 -75 -42 -87 1 -4 -11 -31 -27 -60 -33 -62 -56 -107 -102 -203 -19 -38
-37 -72 -40 -75 -3 -3 -12 -23 -20 -45 -7 -22 -18 -45 -24 -50 -5 -6 -11 -17
-13 -25 -7 -33 -76 -169 -88 -174 -8 -3 -11 -12 -8 -21 4 -10 0 -15 -12 -16
-11 0 -14 -3 -6 -6 9 -3 7 -12 -8 -33 -11 -15 -20 -34 -20 -42 0 -7 -9 -24
-20 -38 -11 -14 -20 -28 -20 -32 0 -5 -10 -18 -21 -29 -17 -17 -19 -23 -8 -30
9 -6 10 -12 4 -17 -5 -4 -21 -29 -36 -56 -19 -38 -31 -50 -52 -52 -34 -3 -35
13 -1 28 19 9 25 18 21 35 -2 13 -1 26 4 28 11 7 39 65 39 82 0 7 3 13 8 13 4
0 12 11 18 25 9 18 9 25 0 29 -8 3 -7 7 2 14 7 5 10 16 6 27 -5 13 -4 16 4 11
8 -5 12 0 12 13 0 12 5 21 10 21 6 0 10 9 10 20 0 12 7 20 18 20 13 0 14 2 3
9 -11 7 -9 14 13 37 16 18 26 40 26 59 0 20 7 35 20 43 12 7 18 17 15 21 -7
13 5 41 19 41 14 0 37 48 26 55 -16 10 2 41 30 53 26 12 28 16 19 38 -10 28
-3 48 13 38 7 -5 9 0 6 14 -4 14 2 31 14 47 11 14 16 25 12 25 -5 0 -3 5 4 12
7 7 12 21 12 31 0 17 2 18 16 6 15 -12 16 -11 10 8 -7 22 28 104 65 152 11 13
19 31 19 40 0 10 9 27 20 39 11 12 20 25 20 30 0 20 37 82 45 75 4 -4 5 -2 1
5 -4 6 1 24 12 40 11 15 34 57 52 94 18 37 37 65 42 62 4 -3 8 3 8 14 0 19 28
83 40 92 4 3 9 12 13 20 4 8 20 38 37 65 17 28 39 68 49 90 11 22 31 55 45 74
14 19 26 38 26 42 0 5 14 28 30 52 17 25 30 49 30 54 0 6 9 20 20 33 11 12 17
27 14 31 -3 5 2 9 10 9 10 0 13 6 10 15 -4 8 -1 15 5 15 6 0 16 11 20 23 5 13
28 54 50 91 23 36 41 70 41 75 0 5 6 14 14 21 8 6 16 24 18 38 2 16 8 26 16
24 8 -1 11 2 8 7 -8 12 8 53 26 72 8 8 29 41 48 74 18 33 36 62 40 65 3 3 20
34 38 70 41 86 106 201 154 274 21 33 38 64 38 69 0 5 6 7 14 4 9 -4 12 0 9
12 -2 10 3 25 11 34 9 8 16 19 16 24 0 4 9 19 20 33 35 43 88 139 81 146 -3 4
-1 4 5 1 7 -4 14 3 18 18 4 14 11 25 16 25 6 0 10 7 10 15 0 8 9 24 20 35 10
10 29 38 41 62 12 24 39 74 61 111 75 129 48 61 -54 -134z m-2113 -1946 c-9
-13 -13 -28 -10 -33 3 -6 1 -10 -4 -10 -6 0 -11 -13 -11 -30 0 -17 -5 -30 -12
-31 -7 0 -3 -5 10 -11 12 -6 22 -16 22 -22 0 -6 5 -4 10 4 7 11 8 5 4 -20 -4
-26 -3 -31 5 -20 8 12 13 12 23 2 6 -6 8 -12 3 -12 -6 0 -11 -10 -11 -23 -2
-26 -36 -107 -45 -107 -3 0 -5 12 -3 28 2 16 1 19 -2 7 -9 -29 -26 -45 -24
-20 5 45 0 55 -25 55 -16 0 -25 -6 -25 -15 0 -14 12 -20 33 -16 5 1 7 -4 5
-11 -3 -7 -13 -13 -24 -13 -10 0 -19 -6 -18 -13 3 -39 5 -43 16 -36 7 4 8 3 4
-5 -10 -15 3 -53 15 -46 13 9 11 -9 -3 -23 -17 -17 -48 4 -48 33 0 14 4 25 10
25 5 0 7 7 4 15 -9 22 -24 8 -24 -23 0 -16 -4 -22 -9 -16 -6 5 4 52 25 119 19
61 42 135 52 165 9 30 19 57 22 60 3 3 5 10 6 15 0 6 7 30 14 53 13 40 15 42
22 22 6 -16 3 -30 -7 -47z m-438 -89 c33 1 40 -4 66 -42 20 -30 35 -42 47 -39
13 3 17 -1 15 -17 -4 -31 -4 -31 -18 -11 -10 12 -16 14 -21 7 -4 -7 -15 -12
-26 -12 -11 0 -20 -10 -24 -26 -5 -20 -10 -23 -21 -14 -9 7 -15 8 -20 0 -8
-14 -26 -13 -22 1 1 6 -3 13 -9 16 -7 2 -9 -8 -6 -28 3 -22 1 -30 -7 -25 -6 4
-11 14 -11 22 0 8 -5 14 -11 14 -6 0 -9 -8 -6 -17 3 -10 8 -29 12 -43 5 -23 5
-23 -4 -4 -5 12 -14 25 -19 28 -6 4 -7 21 -1 48 16 70 30 109 39 103 5 -3 7
12 5 32 -3 21 -2 31 1 22 3 -11 16 -16 41 -15z m289 -99 c8 -10 14 -15 14 -10
0 4 2 6 5 3 11 -11 -17 -56 -31 -51 -8 3 -16 -2 -20 -10 -3 -9 -12 -13 -19
-11 -20 8 -55 -14 -55 -35 0 -10 -7 -24 -15 -31 -11 -9 -12 -17 -4 -31 11 -22
34 -26 26 -4 -4 8 -2 17 2 20 12 7 22 -21 15 -40 -4 -8 -1 -15 5 -15 6 0 11
-5 11 -11 0 -5 -5 -7 -11 -4 -10 7 -49 -30 -49 -47 0 -4 -4 -8 -10 -8 -5 0
-10 7 -10 15 0 8 -6 15 -12 16 -10 0 -10 2 0 6 23 9 13 33 -14 33 -19 0 -25 4
-22 18 2 10 12 17 26 16 12 -1 22 3 22 7 0 5 -7 9 -15 9 -8 0 -15 5 -15 11 0
5 5 7 12 3 7 -5 9 -2 5 9 -3 8 1 21 10 28 10 9 13 23 9 48 -3 19 0 41 6 48 12
15 38 17 38 3 0 -5 -7 -10 -15 -10 -8 0 -15 -9 -15 -19 0 -30 16 -33 30 -6 14
26 62 35 75 15 9 -14 25 -12 25 3 0 19 -41 36 -71 30 -13 -2 -32 2 -42 9 -16
12 -11 13 39 13 43 -1 60 -6 70 -20z m734 -40 c0 -2 -11 -29 -25 -59 -14 -30
-25 -57 -25 -59 0 -3 -27 -62 -60 -131 -33 -70 -60 -129 -60 -131 0 -9 -83
-180 -90 -185 -4 -3 -15 -30 -25 -60 -10 -30 -29 -73 -42 -95 -13 -22 -26 -48
-30 -57 -3 -10 -9 -18 -14 -18 -5 0 -6 -6 -3 -13 2 -7 -11 -44 -31 -82 -19
-39 -35 -76 -35 -82 0 -20 -20 -15 -21 5 -1 9 -5 -8 -9 -38 -5 -30 -13 -56
-19 -58 -6 -2 -11 -12 -11 -22 0 -26 -33 -80 -49 -80 -8 0 -11 -6 -7 -15 6
-17 -4 -79 -12 -71 -7 8 -62 -23 -62 -34 0 -6 11 -3 25 6 15 10 25 12 25 5 0
-6 -9 -16 -20 -23 -11 -7 -20 -16 -20 -21 0 -4 5 -5 10 -2 6 3 10 2 10 -3 0
-14 -63 -9 -68 6 -2 7 2 10 12 6 9 -3 16 -1 16 5 0 6 -6 11 -12 11 -7 0 2 14
21 30 27 25 32 35 26 57 -5 23 -4 25 8 14 12 -9 17 -9 22 0 4 6 2 15 -5 19
-18 11 -4 64 15 56 10 -3 14 1 13 12 -1 9 0 26 1 37 2 17 5 15 16 -10 l14 -30
1 33 c0 19 -5 32 -12 32 -7 1 -1 8 15 16 28 15 34 28 17 39 -5 3 -10 -1 -10
-9 0 -8 -5 -18 -11 -22 -16 -10 0 38 17 52 8 6 14 17 14 25 0 16 327 676 384
774 23 39 52 94 66 122 21 44 40 67 40 48z"/>
<path d="M3476 4945 c-16 -35 -34 -69 -41 -75 -8 -6 -17 -25 -20 -41 -4 -16
-11 -29 -16 -29 -5 0 -9 -11 -9 -25 0 -14 -6 -28 -14 -31 -8 -3 -12 -12 -9
-20 3 -7 -2 -16 -10 -20 -8 -3 -17 -23 -21 -45 -3 -21 -10 -39 -14 -39 -8 0
-36 -60 -33 -72 0 -5 -4 -8 -9 -8 -6 0 -18 -19 -27 -42 -9 -23 -27 -62 -40
-85 -18 -34 -19 -43 -8 -43 8 0 17 -11 21 -25 6 -24 9 -21 41 37 33 62 73 146
73 154 0 2 -4 4 -9 4 -4 0 -19 -25 -32 -55 -13 -30 -27 -55 -30 -55 -4 0 -12
-15 -19 -32 -7 -18 -14 -27 -17 -21 -2 7 7 37 21 67 14 30 26 58 26 62 0 4 6
15 13 23 8 9 24 43 37 76 13 33 26 62 30 65 8 8 80 159 80 170 0 5 14 31 30
57 17 26 30 53 30 60 0 7 5 13 10 13 6 0 10 9 10 20 0 37 -17 20 -44 -45z"/>
<path d="M12775 21872 c-33 -1 -197 -12 -365 -22 -663 -44 -2354 -109 -2814
-110 l-128 0 6 -62 c3 -35 11 -135 16 -223 5 -88 18 -257 30 -375 11 -118 29
-325 40 -460 11 -135 25 -294 30 -355 5 -60 15 -168 21 -240 6 -71 15 -170 19
-220 5 -49 14 -175 20 -280 6 -104 16 -198 21 -207 5 -10 9 -41 9 -70 0 -66
27 -421 41 -543 14 -123 28 -274 39 -435 5 -74 14 -180 20 -235 22 -219 39
-416 45 -525 6 -130 26 -280 36 -280 4 0 47 64 96 143 49 78 170 270 268 427
98 157 197 314 220 350 23 36 103 162 177 280 145 231 284 451 357 567 150
236 745 1154 862 1330 30 45 90 138 134 208 44 69 139 215 210 325 72 110 189
290 260 400 72 110 190 291 263 401 73 111 132 204 130 208 -2 3 -30 5 -63 3z"/>
<path d="M70 645 c0 -9 6 -12 15 -9 8 4 15 1 15 -5 0 -6 -5 -11 -11 -11 -7 0
-9 -10 -5 -25 7 -28 -5 -33 -28 -10 -18 18 -30 4 -21 -25 3 -10 1 -28 -4 -39
-7 -13 -8 -22 -1 -26 15 -9 12 -25 -5 -25 -19 0 -20 51 -3 68 10 10 10 15 -1
21 -8 5 -11 16 -8 25 4 9 3 16 -2 16 -5 0 -9 -31 -10 -69 -1 -55 2 -70 15 -75
11 -4 15 -14 12 -31 -4 -18 0 -25 16 -28 12 -2 6 -3 -11 -1 l-33 3 0 -200 0
-199 389 1 c333 0 389 3 384 15 -3 8 -1 14 5 14 5 0 13 -7 16 -16 5 -13 9 -14
21 -4 8 7 15 9 16 4 0 -14 49 88 49 104 0 12 -3 12 -15 2 -8 -7 -15 -21 -15
-31 0 -10 -5 -21 -11 -25 -8 -4 -9 1 -4 17 3 13 9 32 11 42 3 10 15 17 30 17
30 0 31 11 2 36 -18 16 -20 16 -15 2 4 -11 -1 -18 -19 -22 -19 -5 -24 -11 -19
-25 7 -22 -10 -38 -18 -17 -3 7 -18 17 -34 21 -15 3 -30 10 -33 13 -11 15 -72
53 -77 49 -9 -10 31 -57 44 -52 7 2 22 -6 33 -18 26 -27 7 -36 -22 -11 -15 14
-22 16 -25 7 -3 -7 -15 -13 -28 -13 -28 0 -41 -36 -17 -49 9 -5 13 -13 9 -17
-5 -5 -11 -3 -15 3 -4 6 -23 14 -42 18 l-34 7 23 19 c13 11 30 19 38 19 10 0
12 6 8 19 -3 11 -1 22 5 26 13 8 2 56 -16 71 -8 6 -12 19 -8 28 4 10 1 16 -9
16 -8 0 -18 -11 -21 -25 -4 -16 -13 -25 -26 -25 -21 0 -28 16 -9 22 6 2 7 11
3 22 -7 18 -8 18 -21 0 -13 -17 -14 -14 -12 29 4 57 -9 70 -73 75 -10 1 -18 9
-18 17 0 8 -4 15 -10 15 -5 0 -10 -9 -10 -20 0 -11 5 -20 10 -20 6 0 10 -7 10
-15 0 -8 -4 -15 -10 -15 -22 0 4 -28 31 -34 23 -4 29 -11 29 -32 0 -15 3 -25
6 -22 7 8 58 -44 60 -62 1 -8 5 -23 9 -34 6 -14 5 -18 -6 -14 -8 2 -15 18 -17
34 -4 39 -46 69 -95 68 -29 -1 -36 1 -27 10 6 6 16 11 22 11 6 0 13 6 16 13 2
7 -5 12 -18 12 -24 0 -50 22 -50 42 -1 20 -26 48 -44 48 -20 0 -21 -16 -2 -27
8 -4 16 -19 18 -33 2 -17 10 -26 26 -28 36 -5 24 -38 -12 -34 -25 3 -28 0 -23
-18 3 -14 1 -20 -6 -17 -7 2 -13 18 -15 35 -5 45 -22 30 -22 -19 0 -22 -5 -39
-11 -39 -8 0 -10 12 -6 34 3 19 2 50 -3 69 -9 43 -3 53 22 30 11 -9 18 -11 18
-5 0 7 -4 12 -10 12 -5 0 -10 9 -10 20 0 11 -7 20 -15 20 -20 0 -19 17 1 28 9
5 14 14 10 21 -5 8 -14 6 -31 -6 -26 -19 -33 -49 -12 -56 6 -2 8 -8 4 -13 -4
-4 -17 2 -29 14 -19 19 -21 26 -12 50 6 15 8 36 4 47 -6 17 -7 17 -13 1 -4
-10 -7 -31 -7 -47 0 -16 -4 -29 -10 -29 -5 0 -10 -5 -10 -11 0 -6 6 -9 13 -6
15 6 41 -29 32 -43 -3 -4 1 -10 7 -13 10 -4 10 -7 1 -18 -11 -11 -18 -9 -42 9
-21 15 -31 18 -34 9 -4 -9 -8 -9 -15 2 -6 8 -18 11 -31 6 -12 -4 -21 -2 -21 4
0 11 18 15 58 11 22 -1 30 14 12 25 -5 3 -10 13 -10 21 0 9 -7 23 -16 32 -15
15 -17 14 -30 -2 -12 -17 -14 -17 -35 3 -19 18 -21 24 -11 46 15 33 15 35 -3
35 -28 0 -15 31 23 53 20 12 41 22 46 22 5 0 11 6 14 13 2 7 -5 12 -17 12 -28
0 -27 16 1 24 25 6 18 16 -24 34 -23 10 -28 9 -28 -3z"/>
</g>
</svg>
